font.ufo
<glyph name="A" format="2">
	<unicode hex="0041"/>
	<advance width="600"/>
	<outline>
		<contour>
			<point x="50" y="0" type="line"/>
			<point x="82" y="0" type="line"/>
			<point x="222" y="396" type="line" smooth="yes"/>
			<point x="250" y="476"/>
			<point x="274" y="544"/>
			<point x="298" y="626" type="curve"/>
			<point x="302" y="626" type="line"/>
			<point x="326" y="544"/>
			<point x="350" y="476"/>
			<point x="378" y="396" type="curve" smooth="yes"/>
			<point x="516" y="0" type="line"/>
			<point x="550" y="0" type="line"/>
			<point x="314" y="660" type="line"/>
			<point x="286" y="660" type="line"/>
		</contour>
		<contour>
			<point x="152" y="236" type="line"/>
			<point x="445" y="236" type="line"/>
			<point x="445" y="264" type="line"/>
			<point x="152" y="264" type="line"/>
		</contour>
	</outline>
	<anchor name="aboveUC" x="300" y="680"/>
	<anchor name="baseLC" x="524" y="0"/>
	<anchor name="belowLC" x="300" y="-20"/>
	<anchor name="ogonekCXT-ATH" x="300" y="0"/>
	<anchor name="ogonekUC" x="512" y="0"/>
</glyph>
<glyph name="E" format="1">
	<unicode hex="0045"/>
	<advance width="600"/>
	<outline>
		<contour>
			<point x="132" y="0" type="line"/>
			<point x="526" y="0" type="line"/>
			<point x="526" y="28" type="line"/>
			<point x="164" y="28" type="line"/>
			<point x="164" y="338" type="line"/>
			<point x="460" y="338" type="line"/>
			<point x="460" y="366" type="line"/>
			<point x="164" y="366" type="line"/>
			<point x="164" y="632" type="line"/>
			<point x="516" y="632" type="line"/>
			<point x="516" y="660" type="line"/>
			<point x="132" y="660" type="line"/>
		</contour>
		<contour>
			<point name="aboveUC" x="338" y="680" type="move"/>
		</contour>
		<contour>
			<point name="belowLC" x="340" y="-20" type="move"/>
		</contour>
		<contour>
			<point name="ogonekUC" x="430" y="0" type="move"/>
		</contour>
		<contour>
			<point name="baseLC" x="330" y="0" type="move"/>
		</contour>
		<contour>
			<point name="ogonekCXT-ATH" x="340" y="0" type="move"/>
		</contour>
	</outline>
</glyph>
<glyph name="F" format="2">
	<unicode hex="0046"/>
	<advance width="600"/>
	<outline>
		<contour>
			<point x="156" y="0" type="line"/>
			<point x="188" y="0" type="line"/>
			<point x="188" y="326" type="line"/>
			<point x="479" y="326" type="line"/>
			<point x="479" y="354" type="line"/>
			<point x="188" y="354" type="line"/>
			<point x="188" y="632" type="line"/>
			<point x="534" y="632" type="line"/>
			<point x="534" y="660" type="line"/>
			<point x="156" y="660" type="line"/>
		</contour>
	</outline>
	<anchor name="aboveUC" x="349" y="680"/>
	<anchor name="baseLC" x="164" y="0"/>
	<anchor name="belowLC" x="181" y="-20"/>
</glyph>
<glyph name="I" format="1">
	<unicode hex="0049"/>
	<advance width="600"/>
	<outline>
		<contour>
			<point x="112" y="0" type="line"/>
			<point x="488" y="0" type="line"/>
			<point x="488" y="28" type="line"/>
			<point x="316" y="28" type="line"/>
			<point x="316" y="632" type="line"/>
			<point x="488" y="632" type="line"/>
			<point x="488" y="660" type="line"/>
			<point x="112" y="660" type="line"/>
			<point x="112" y="632" type="line"/>
			<point x="284" y="632" type="line"/>
			<point x="284" y="28" type="line"/>
			<point x="112" y="28" type="line"/>
		</contour>
		<contour>
			<point name="aboveUC" x="300" y="680" type="move"/>
		</contour>
		<contour>
			<point name="ogonekUC" x="300" y="0" type="move"/>
		</contour>
		<contour>
			<point name="baseLC" x="300" y="0" type="move"/>
		</contour>
		<contour>
			<point name="belowLC" x="300" y="-20" type="move"/>
		</contour>
	</outline>
</glyph>
<glyph name="L" format="1">
	<unicode hex="004C"/>
	<advance width="600"/>
	<outline>
		<contour>
			<point x="156" y="0" type="line"/>
			<point x="538" y="0" type="line"/>
			<point x="538" y="28" type="line"/>
			<point x="186" y="28" type="line"/>
			<point x="186" y="660" type="line"/>
			<point x="156" y="660" type="line"/>
		</contour>
		<contour>
			<point name="aboveUC" x="186" y="680" type="move"/>
		</contour>
		<contour>
			<point name="center" x="174" y="330" type="move"/>
		</contour>
		<contour>
			<point name="baseLC" x="360" y="0" type="move"/>
		</contour>
		<contour>
			<point name="belowLC" x="360" y="-20" type="move"/>
		</contour>
	</outline>
</glyph>
<glyph name="U" format="2">
	<unicode hex="0055"/>
	<advance width="600"/>
	<outline>
		<contour>
			<point x="300" y="-12" type="curve" smooth="yes"/>
			<point x="404" y="-12"/>
			<point x="508" y="42"/>
			<point x="508" y="246" type="curve" smooth="yes"/>
			<point x="508" y="660" type="line"/>
			<point x="478" y="660" type="line"/>
			<point x="478" y="254" type="line" smooth="yes"/>
			<point x="478" y="72"/>
			<point x="394" y="18"/>
			<point x="300" y="18" type="curve" smooth="yes"/>
			<point x="208" y="18"/>
			<point x="124" y="72"/>
			<point x="124" y="254" type="curve" smooth="yes"/>
			<point x="124" y="660" type="line"/>
			<point x="92" y="660" type="line"/>
			<point x="92" y="246" type="line" smooth="yes"/>
			<point x="92" y="42"/>
			<point x="196" y="-12"/>
		</contour>
	</outline>
	<anchor name="aboveUC" x="300" y="680"/>
	<anchor name="baseLC" x="300" y="0"/>
	<anchor name="belowLC" x="300" y="-20"/>
	<anchor name="hornLC" x="495" y="670"/>
	<anchor name="ogonekUC" x="300" y="0"/>
</glyph>
<glyph name="bracketright" format="1">
	<unicode hex="005D"/>
	<advance width="600"/>
	<outline>
		<contour>
			<point x="94" y="-152" type="line"/>
			<point x="354" y="-152" type="line"/>
			<point x="354" y="708" type="line"/>
			<point x="94" y="708" type="line"/>
			<point x="94" y="686" type="line"/>
			<point x="326" y="686" type="line"/>
			<point x="326" y="-130" type="line"/>
			<point x="94" y="-130" type="line"/>
		</contour>
	</outline>
</glyph>
<glyph name="Oslash" format="2">
	<unicode hex="00D8"/>
	<advance width="600"/>
	<outline>
		<contour>
			<point x="58" y="-4" type="line"/>
			<point x="80" y="-20" type="line"/>
			<point x="538" y="664" type="line"/>
			<point x="516" y="680" type="line"/>
		</contour>
		<component base="O"/>
	</outline>
	<anchor name="aboveUC" x="300" y="680"/>
	<anchor name="baseLC" x="300" y="0"/>
</glyph>
<glyph name="dotlessi" format="2">
	<unicode hex="0131"/>
	<advance width="600"/>
	<outline>
		<contour>
			<point x="346" y="0" type="line"/>
			<point x="376" y="0" type="line"/>
			<point x="376" y="478" type="line"/>
			<point x="100" y="478" type="line"/>
			<point x="100" y="450" type="line"/>
			<point x="346" y="450" type="line"/>
		</contour>
	</outline>
	<anchor name="aboveLC" x="350" y="500"/>
	<anchor name="baseLC" x="354" y="0"/>
	<anchor name="belowLC" x="350" y="-20"/>
	<anchor name="ogonekLC" x="360" y="0"/>
</glyph>
<glyph name="Lslash" format="2">
	<unicode hex="0141"/>
	<advance width="600"/>
	<outline>
		<contour>
			<point x="36" y="190" type="line"/>
			<point x="158" y="252" type="line"/>
			<point x="184" y="264" type="line"/>
			<point x="434" y="394" type="line"/>
			<point x="422" y="418" type="line"/>
			<point x="184" y="294" type="line"/>
			<point x="158" y="282" type="line"/>
			<point x="24" y="214" type="line"/>
		</contour>
		<component base="L"/>
	</outline>
	<anchor name="aboveUC" x="186" y="680"/>
	<anchor name="belowLC" x="360" y="-20"/>
</glyph>
<glyph name="OE" format="1">
	<unicode hex="0152"/>
	<advance width="600"/>
	<outline>
		<contour>
			<point x="303" y="0" type="curve" smooth="yes"/>
			<point x="588" y="0" type="line"/>
			<point x="588" y="28" type="line"/>
			<point x="356" y="28" type="line"/>
			<point x="356" y="338" type="line"/>
			<point x="526" y="338" type="line"/>
			<point x="526" y="366" type="line"/>
			<point x="356" y="366" type="line"/>
			<point x="356" y="634" type="line"/>
			<point x="578" y="634" type="line"/>
			<point x="578" y="661" type="line"/>
			<point x="302" y="661" type="line" smooth="yes"/>
			<point x="130" y="661"/>
			<point x="44" y="528"/>
			<point x="44" y="332" type="curve" smooth="yes"/>
			<point x="44" y="136"/>
			<point x="130" y="0"/>
		</contour>
		<contour>
			<point x="298" y="28" type="line" smooth="yes"/>
			<point x="144" y="28"/>
			<point x="78" y="158"/>
			<point x="78" y="332" type="curve" smooth="yes"/>
			<point x="78" y="506"/>
			<point x="144" y="633"/>
			<point x="298" y="633" type="curve" smooth="yes"/>
			<point x="324" y="633" type="line"/>
			<point x="324" y="28" type="line"/>
		</contour>
		<contour>
			<point name="aboveUC" x="390" y="680" type="move"/>
		</contour>
		<contour>
			<point name="baseLC" x="470" y="0" type="move"/>
		</contour>
	</outline>
</glyph>
<glyph name="tbar" format="2">
	<unicode hex="0167"/>
	<advance width="600"/>
	<outline>
		<contour>
			<point x="84" y="238" type="line"/>
			<point x="504" y="238" type="line"/>
			<point x="504" y="266" type="line"/>
			<point x="232" y="266" type="line"/>
			<point x="84" y="262" type="line"/>
		</contour>
		<component base="t"/>
	</outline>
	<anchor name="aboveLC" x="250" y="630"/>
	<anchor name="belowLC" x="390" y="-20"/>
</glyph>
<glyph name="Istroke" format="2">
	<unicode hex="0197"/>
	<advance width="600"/>
	<outline>
		<contour>
			<point x="162" y="338" type="line"/>
			<point x="430" y="338" type="line"/>
			<point x="430" y="366" type="line"/>
			<point x="286" y="366" type="line"/>
			<point x="162" y="362" type="line"/>
		</contour>
		<component base="I"/>
	</outline>
</glyph>
<glyph name="uhorn" format="1">
	<unicode hex="01B0"/>
	<advance width="600"/>
	<outline>
		<contour>
			<point x="488" y="458" type="line"/>
			<point x="526" y="471"/>
			<point x="578" y="499"/>
			<point x="578" y="580" type="curve" smooth="yes"/>
			<point x="578" y="602"/>
			<point x="572" y="624"/>
			<point x="560" y="646" type="curve"/>
			<point x="532" y="630" type="line"/>
			<point x="542" y="613"/>
			<point x="546" y="593"/>
			<point x="546" y="578" type="curve" smooth="yes"/>
			<point x="546" y="520"/>
			<point x="515" y="489"/>
			<point x="462" y="478" type="curve"/>
		</contour>
		<component base="u"/>
		<contour>
			<point name="aboveLC" x="294" y="500" type="move"/>
		</contour>
		<contour>
			<point name="belowLC" x="290" y="-20" type="move"/>
		</contour>
	</outline>
</glyph>
<glyph name="clickretroflex" format="2">
	<unicode hex="01C3"/>
	<advance width="248"/>
	<outline>
		<contour>
			<point x="112" y="172" type="line"/>
			<point x="136" y="172" type="line"/>
			<point x="140" y="608" type="line"/>
			<point x="140" y="722" type="line"/>
			<point x="108" y="722" type="line"/>
			<point x="108" y="608" type="line"/>
		</contour>
		<contour>
			<point x="124" y="-12" type="curve" smooth="yes"/>
			<point x="142" y="-12"/>
			<point x="160" y="2"/>
			<point x="160" y="26" type="curve" smooth="yes"/>
			<point x="160" y="52"/>
			<point x="142" y="66"/>
			<point x="124" y="66" type="curve" smooth="yes"/>
			<point x="106" y="66"/>
			<point x="88" y="52"/>
			<point x="88" y="26" type="curve" smooth="yes"/>
			<point x="88" y="2"/>
			<point x="106" y="-12"/>
		</contour>
	</outline>
	<anchor name="aboveUC" x="124" y="732"/>
	<anchor name="belowLC" x="124" y="-22"/>
</glyph>
<glyph name="Glottalstop" format="2">
	<unicode hex="0241"/>
	<advance width="442"/>
	<outline>
		<contour>
			<point x="184" y="0" type="line"/>
			<point x="216" y="0" type="line"/>
			<point x="216" y="258" type="line"/>
			<point x="345" y="308"/>
			<point x="418" y="382"/>
			<point x="418" y="492" type="curve" smooth="yes"/>
			<point x="418" y="608"/>
			<point x="328" y="672"/>
			<point x="210" y="672" type="curve" smooth="yes"/>
			<point x="112" y="672"/>
			<point x="42" y="628"/>
			<point x="0" y="586" type="curve"/>
			<point x="22" y="564" type="line"/>
			<point x="62" y="604"/>
			<point x="128" y="642"/>
			<point x="212" y="642" type="curve" smooth="yes"/>
			<point x="322" y="642"/>
			<point x="384" y="582"/>
			<point x="384" y="494" type="curve" smooth="yes"/>
			<point x="384" y="400"/>
			<point x="330" y="330"/>
			<point x="184" y="278" type="curve"/>
		</contour>
	</outline>
	<anchor name="aboveUC" x="220" y="682"/>
	<anchor name="belowLC" x="200" y="-22"/>
</glyph>
<glyph name="lmiddletilde" format="1">
	<unicode hex="026B"/>
	<advance width="600"/>
	<outline>
		<component base="l"/>
		<component base="tildeoverlaycmb" xOffset="-4" yOffset="160"/>
		<contour>
			<point name="aboveUC" x="294" y="740" type="move"/>
		</contour>
		<contour>
			<point name="belowLC" x="400" y="-20" type="move"/>
		</contour>
	</outline>
</glyph>
<glyph name="lbelt" format="1">
	<unicode hex="026C"/>
	<advance width="600"/>
	<outline>
		<contour>
			<point x="248" y="340" type="curve" smooth="yes"/>
			<point x="458" y="340" type="line"/>
			<point x="458" y="368" type="line"/>
			<point x="242" y="368" type="line" smooth="yes"/>
			<point x="170" y="368"/>
			<point x="150" y="389"/>
			<point x="150" y="414" type="curve" smooth="yes"/>
			<point x="150" y="433"/>
			<point x="164" y="450"/>
			<point x="198" y="450" type="curve" smooth="yes"/>
			<point x="250" y="450"/>
			<point x="280" y="414"/>
			<point x="280" y="378" type="curve"/>
			<point x="300" y="370" type="line"/>
			<point x="300" y="406"/>
			<point x="282" y="478"/>
			<point x="194" y="478" type="curve" smooth="yes"/>
			<point x="148" y="478"/>
			<point x="118" y="451"/>
			<point x="118" y="416" type="curve" smooth="yes"/>
			<point x="118" y="372"/>
			<point x="154" y="340"/>
		</contour>
		<component base="l"/>
		<contour>
			<point name="aboveUC" x="294" y="740" type="move"/>
		</contour>
		<contour>
			<point name="belowLC" x="400" y="-20" type="move"/>
		</contour>
	</outline>
</glyph>
<glyph name="nhookleft" format="1">
	<unicode hex="0272"/>
	<advance width="600"/>
	<outline>
		<contour>
			<point x="52" y="-180" type="curve" smooth="yes"/>
			<point x="112" y="-180"/>
			<point x="140" y="-144"/>
			<point x="140" y="-54" type="curve"/>
			<point x="140" y="346" type="line"/>
			<point x="214" y="424"/>
			<point x="264" y="462"/>
			<point x="336" y="462" type="curve" smooth="yes"/>
			<point x="437" y="462"/>
			<point x="480" y="407"/>
			<point x="480" y="294" type="curve" smooth="yes"/>
			<point x="480" y="0" type="line"/>
			<point x="510" y="0" type="line"/>
			<point x="510" y="298" type="line" smooth="yes"/>
			<point x="510" y="429"/>
			<point x="453" y="490"/>
			<point x="336" y="490" type="curve" smooth="yes"/>
			<point x="258" y="490"/>
			<point x="201" y="444"/>
			<point x="144" y="382" type="curve"/>
			<point x="140" y="382" type="line"/>
			<point x="136" y="478" type="line"/>
			<point x="110" y="478" type="line"/>
			<point x="110" y="-50" type="line"/>
			<point x="110" y="-110"/>
			<point x="98" y="-152"/>
			<point x="54" y="-152" type="curve" smooth="yes"/>
			<point x="38" y="-152"/>
			<point x="22" y="-146"/>
			<point x="12" y="-142" type="curve"/>
			<point x="4" y="-168" type="line"/>
			<point x="14" y="-174"/>
			<point x="36" y="-180"/>
		</contour>
		<contour>
			<point name="aboveLC" x="320" y="500" type="move"/>
		</contour>
		<contour>
			<point name="belowLC" x="100" y="-230" type="move"/>
		</contour>
	</outline>
</glyph>
<glyph name="zcurl" format="1">
	<unicode hex="0291"/>
	<advance width="600"/>
	<outline>
		<contour>
			<point x="346" y="-120" type="line"/>
			<point x="376" y="78"/>
			<point x="438" y="150"/>
			<point x="490" y="150" type="curve" smooth="yes"/>
			<point x="527" y="150"/>
			<point x="540" y="128"/>
			<point x="540" y="100" type="curve" smooth="yes"/>
			<point x="540" y="64"/>
			<point x="504" y="28"/>
			<point x="438" y="28" type="curve" smooth="yes"/>
			<point x="331" y="28"/>
			<point x="227" y="28"/>
			<point x="120" y="28" type="curve"/>
			<point x="512" y="462" type="line"/>
			<point x="512" y="478" type="line"/>
			<point x="114" y="478" type="line"/>
			<point x="114" y="450" type="line"/>
			<point x="464" y="450" type="line"/>
			<point x="72" y="16" type="line"/>
			<point x="72" y="0" type="line"/>
			<point x="432" y="0" type="line" smooth="yes"/>
			<point x="522" y="0"/>
			<point x="570" y="45"/>
			<point x="570" y="100" type="curve" smooth="yes"/>
			<point x="570" y="148"/>
			<point x="542" y="178"/>
			<point x="492" y="178" type="curve" smooth="yes"/>
			<point x="418" y="178"/>
			<point x="354" y="96"/>
			<point x="316" y="-114" type="curve"/>
		</contour>
		<contour>
			<point name="aboveLC" x="318" y="500" type="move"/>
		</contour>
	</outline>
</glyph>
<glyph name="glottalstopreversed" format="1">
	<unicode hex="0295"/>
	<advance width="600"/>
	<outline>
		<contour>
			<point x="304" y="0" type="line"/>
			<point x="334" y="0" type="line"/>
			<point x="334" y="310" type="line"/>
			<point x="204" y="379"/>
			<point x="136" y="440"/>
			<point x="136" y="544" type="curve" smooth="yes"/>
			<point x="136" y="640"/>
			<point x="197" y="706"/>
			<point x="308" y="706" type="curve" smooth="yes"/>
			<point x="400" y="706"/>
			<point x="454" y="661"/>
			<point x="492" y="616" type="curve"/>
			<point x="512" y="638" type="line"/>
			<point x="472" y="683"/>
			<point x="412" y="734"/>
			<point x="310" y="734" type="curve" smooth="yes"/>
			<point x="193" y="734"/>
			<point x="104" y="666"/>
			<point x="104" y="542" type="curve" smooth="yes"/>
			<point x="104" y="419"/>
			<point x="190" y="356"/>
			<point x="304" y="288" type="curve"/>
		</contour>
		<contour>
			<point name="aboveUC" x="310" y="740" type="move"/>
		</contour>
		<contour>
			<point name="belowLC" x="320" y="-20" type="move"/>
		</contour>
	</outline>
</glyph>
<glyph name="hookrhoticmod" format="1">
	<unicode hex="02DE"/>
	<advance width="600"/>
	<outline>
		<contour>
			<point x="324" y="233" type="curve" smooth="yes"/>
			<point x="349" y="233"/>
			<point x="367" y="245"/>
			<point x="380" y="256" type="curve"/>
			<point x="364" y="278" type="line"/>
			<point x="355" y="269"/>
			<point x="343" y="261"/>
			<point x="327" y="261" type="curve" smooth="yes"/>
			<point x="299" y="261"/>
			<point x="280" y="276"/>
			<point x="270" y="367" type="curve"/>
			<point x="158" y="324" type="line"/>
			<point x="158" y="296" type="line"/>
			<point x="246" y="328" type="line"/>
			<point x="258" y="260"/>
			<point x="286" y="233"/>
		</contour>
	</outline>
</glyph>
<glyph name="glottalstopreversedsupmod" format="2">
	<unicode hex="02E4"/>
	<advance width="600"/>
	<outline>
		<contour>
			<point x="300" y="410" type="line"/>
			<point x="330" y="410" type="line"/>
			<point x="330" y="616" type="line"/>
			<point x="250" y="656"/>
			<point x="202" y="704"/>
			<point x="202" y="768" type="curve" smooth="yes"/>
			<point x="202" y="826"/>
			<point x="248" y="864"/>
			<point x="315" y="864" type="curve" smooth="yes"/>
			<point x="364" y="864"/>
			<point x="396" y="840"/>
			<point x="422" y="814" type="curve"/>
			<point x="442" y="834" type="line"/>
			<point x="416" y="862"/>
			<point x="374" y="892"/>
			<point x="315" y="892" type="curve" smooth="yes"/>
			<point x="238" y="892"/>
			<point x="170" y="846"/>
			<point x="170" y="767" type="curve" smooth="yes"/>
			<point x="170" y="688"/>
			<point x="230" y="638"/>
			<point x="300" y="598" type="curve"/>
		</contour>
	</outline>
</glyph>
<glyph name="bridgebelowcmb" format="2">
	<unicode hex="032A"/>
	<advance width="600"/>
	<outline>
		<contour>
			<point x="184" y="-230" type="line"/>
			<point x="210" y="-230" type="line"/>
			<point x="210" y="-114" type="line"/>
			<point x="390" y="-114" type="line"/>
			<point x="390" y="-230" type="line"/>
			<point x="416" y="-230" type="line"/>
			<point x="416" y="-86" type="line"/>
			<point x="184" y="-86" type="line"/>
		</contour>
	</outline>
	<anchor name="_belowLC" x="300" y="-20"/>
</glyph>
<glyph name="bridgeinvertedbelowcmb" format="2">
	<unicode hex="033A"/>
	<advance width="600"/>
	<outline>
		<contour>
			<point x="184" y="-234" type="line"/>
			<point x="416" y="-234" type="line"/>
			<point x="416" y="-90" type="line"/>
			<point x="390" y="-90" type="line"/>
			<point x="390" y="-206" type="line"/>
			<point x="210" y="-206" type="line"/>
			<point x="210" y="-90" type="line"/>
			<point x="184" y="-90" type="line"/>
		</contour>
	</outline>
	<anchor name="_belowLC" x="300" y="-20"/>
</glyph>
<glyph name="tonoscmb" format="2">
	<unicode hex="0341"/>
	<advance width="600"/>
	<outline>
		<contour>
			<point x="304" y="560" type="line"/>
			<point x="376" y="764" type="line"/>
			<point x="338" y="774" type="line"/>
			<point x="280" y="566" type="line"/>
		</contour>
	</outline>
	<anchor name="_aboveLC" x="300" y="500"/>
</glyph>
<glyph name="Pi" format="1">
	<unicode hex="03A0"/>
	<advance width="600"/>
	<outline>
		<contour>
			<point x="92" y="0" type="line"/>
			<point x="124" y="0" type="line"/>
			<point x="124" y="632" type="line"/>
			<point x="476" y="632" type="line"/>
			<point x="476" y="0" type="line"/>
			<point x="508" y="0" type="line"/>
			<point x="508" y="660" type="line"/>
			<point x="92" y="660" type="line"/>
		</contour>
	</outline>
</glyph>
<glyph name="Omega" format="1">
	<unicode hex="03A9"/>
	<advance width="600"/>
	<outline>
		<contour>
			<point x="44" y="0" type="line"/>
			<point x="240" y="0" type="line"/>
			<point x="240" y="24" type="line"/>
			<point x="161" y="78"/>
			<point x="90" y="182"/>
			<point x="90" y="348" type="curve" smooth="yes"/>
			<point x="90" y="514"/>
			<point x="164" y="642"/>
			<point x="300" y="642" type="curve" smooth="yes"/>
			<point x="436" y="642"/>
			<point x="510" y="514"/>
			<point x="510" y="348" type="curve" smooth="yes"/>
			<point x="510" y="182"/>
			<point x="439" y="78"/>
			<point x="360" y="24" type="curve"/>
			<point x="360" y="0" type="line"/>
			<point x="556" y="0" type="line"/>
			<point x="556" y="28" type="line"/>
			<point x="418" y="28" type="line"/>
			<point x="418" y="32" type="line"/>
			<point x="483" y="94"/>
			<point x="544" y="194"/>
			<point x="544" y="346" type="curve" smooth="yes"/>
			<point x="544" y="532"/>
			<point x="452" y="672"/>
			<point x="300" y="672" type="curve" smooth="yes"/>
			<point x="148" y="672"/>
			<point x="56" y="532"/>
			<point x="56" y="346" type="curve" smooth="yes"/>
			<point x="56" y="194"/>
			<point x="117" y="94"/>
			<point x="182" y="32" type="curve"/>
			<point x="182" y="28" type="line"/>
			<point x="44" y="28" type="line"/>
		</contour>
		<contour>
			<point name="aboveUC" x="300" y="680" type="move"/>
		</contour>
		<contour>
			<point name="belowLC" x="300" y="-20" type="move"/>
		</contour>
	</outline>
</glyph>
<glyph name="omega" format="1">
	<unicode hex="03C9"/>
	<advance width="600"/>
	<outline>
		<contour>
			<point x="186" y="-12" type="curve" smooth="yes"/>
			<point x="234" y="-12"/>
			<point x="276" y="17"/>
			<point x="298" y="72" type="curve"/>
			<point x="302" y="72" type="line"/>
			<point x="324" y="17"/>
			<point x="366" y="-12"/>
			<point x="414" y="-12" type="curve" smooth="yes"/>
			<point x="494" y="-12"/>
			<point x="554" y="55"/>
			<point x="554" y="212" type="curve" smooth="yes"/>
			<point x="554" y="334"/>
			<point x="516" y="408"/>
			<point x="458" y="490" type="curve"/>
			<point x="432" y="474" type="line"/>
			<point x="492" y="389"/>
			<point x="522" y="326"/>
			<point x="522" y="212" type="curve" smooth="yes"/>
			<point x="522" y="75"/>
			<point x="476" y="16"/>
			<point x="412" y="16" type="curve" smooth="yes"/>
			<point x="366" y="16"/>
			<point x="314" y="48"/>
			<point x="314" y="160" type="curve" smooth="yes"/>
			<point x="314" y="196"/>
			<point x="314" y="242"/>
			<point x="318" y="290" type="curve"/>
			<point x="280" y="290" type="line"/>
			<point x="284" y="242"/>
			<point x="284" y="196"/>
			<point x="284" y="160" type="curve" smooth="yes"/>
			<point x="284" y="48"/>
			<point x="234" y="16"/>
			<point x="188" y="16" type="curve" smooth="yes"/>
			<point x="129" y="16"/>
			<point x="76" y="80"/>
			<point x="76" y="206" type="curve" smooth="yes"/>
			<point x="76" y="324"/>
			<point x="110" y="393"/>
			<point x="170" y="472" type="curve"/>
			<point x="146" y="490" type="line"/>
			<point x="90" y="411"/>
			<point x="46" y="330"/>
			<point x="46" y="210" type="curve" smooth="yes"/>
			<point x="46" y="58"/>
			<point x="112" y="-12"/>
		</contour>
		<contour>
			<point name="aboveLC" x="300" y="500" type="move"/>
		</contour>
		<contour>
			<point name="belowLC" x="300" y="-20" type="move"/>
		</contour>
	</outline>
</glyph>
<glyph name="Lje" format="2">
	<unicode hex="0409"/>
	<advance width="600"/>
	<outline>
		<contour>
			<point x="28" y="-12" type="curve" smooth="yes"/>
			<point x="77" y="-12"/>
			<point x="112" y="20"/>
			<point x="134" y="208" type="curve" smooth="yes"/>
			<point x="150" y="347"/>
			<point x="164" y="492"/>
			<point x="168" y="632" type="curve"/>
			<point x="304" y="632" type="line"/>
			<point x="336" y="660" type="line"/>
			<point x="140" y="660" type="line"/>
			<point x="134" y="502"/>
			<point x="122" y="361"/>
			<point x="104" y="214" type="curve" smooth="yes"/>
			<point x="83" y="44"/>
			<point x="56" y="22"/>
			<point x="26" y="22" type="curve" smooth="yes"/>
			<point x="20" y="22"/>
			<point x="15" y="23"/>
			<point x="8" y="26" type="curve"/>
			<point x="-2" y="-6" type="line"/>
			<point x="10" y="-11"/>
			<point x="20" y="-12"/>
		</contour>
		<contour>
			<point x="304" y="0" type="line"/>
			<point x="370" y="0" type="line" smooth="yes"/>
			<point x="498" y="0"/>
			<point x="566" y="66"/>
			<point x="566" y="192" type="curve" smooth="yes"/>
			<point x="566" y="314"/>
			<point x="488" y="366"/>
			<point x="366" y="366" type="curve" smooth="yes"/>
			<point x="336" y="366" type="line"/>
			<point x="336" y="660" type="line"/>
			<point x="304" y="660" type="line"/>
		</contour>
		<contour>
			<point x="336" y="28" type="line"/>
			<point x="336" y="338" type="line"/>
			<point x="354" y="338" type="line" smooth="yes"/>
			<point x="474" y="338"/>
			<point x="534" y="294"/>
			<point x="534" y="190" type="curve" smooth="yes"/>
			<point x="534" y="78"/>
			<point x="476" y="28"/>
			<point x="358" y="28" type="curve" smooth="yes"/>
		</contour>
	</outline>
</glyph>
<glyph name="Soft" format="1">
	<unicode hex="042C"/>
	<advance width="600"/>
	<outline>
		<contour>
			<point x="118" y="0" type="line"/>
			<point x="304" y="0" type="line" smooth="yes"/>
			<point x="452" y="0"/>
			<point x="532" y="66"/>
			<point x="532" y="192" type="curve" smooth="yes"/>
			<point x="532" y="314"/>
			<point x="442" y="366"/>
			<point x="300" y="366" type="curve" smooth="yes"/>
			<point x="150" y="366" type="line"/>
			<point x="150" y="660" type="line"/>
			<point x="118" y="660" type="line"/>
		</contour>
		<contour>
			<point x="150" y="28" type="line"/>
			<point x="150" y="338" type="line"/>
			<point x="288" y="338" type="line" smooth="yes"/>
			<point x="428" y="338"/>
			<point x="500" y="294"/>
			<point x="500" y="190" type="curve" smooth="yes"/>
			<point x="500" y="78"/>
			<point x="430" y="28"/>
			<point x="292" y="28" type="curve" smooth="yes"/>
		</contour>
	</outline>
</glyph>
<glyph name="Ecyr" format="1">
	<unicode hex="042D"/>
	<advance width="600"/>
	<outline>
		<contour>
			<point x="265" y="-12" type="curve" smooth="yes"/>
			<point x="423" y="-12"/>
			<point x="525" y="116"/>
			<point x="525" y="332" type="curve" smooth="yes"/>
			<point x="525" y="548"/>
			<point x="427" y="672"/>
			<point x="263" y="672" type="curve" smooth="yes"/>
			<point x="185" y="672"/>
			<point x="115" y="634"/>
			<point x="79" y="594" type="curve"/>
			<point x="99" y="572" type="line"/>
			<point x="137" y="614"/>
			<point x="199" y="642"/>
			<point x="263" y="642" type="curve" smooth="yes"/>
			<point x="411" y="642"/>
			<point x="493" y="526"/>
			<point x="493" y="338" type="curve" smooth="yes"/>
			<point x="493" y="134"/>
			<point x="405" y="18"/>
			<point x="263" y="18" type="curve" smooth="yes"/>
			<point x="187" y="18"/>
			<point x="131" y="46"/>
			<point x="79" y="102" type="curve"/>
			<point x="59" y="82" type="line"/>
			<point x="111" y="24"/>
			<point x="173" y="-12"/>
		</contour>
		<contour>
			<point x="179" y="338" type="line"/>
			<point x="519" y="338" type="line"/>
			<point x="519" y="366" type="line"/>
			<point x="179" y="366" type="line"/>
		</contour>
		<contour>
			<point name="aboveUC" x="290" y="680" type="move"/>
		</contour>
	</outline>
</glyph>
<glyph name="ve" format="1">
	<unicode hex="0432"/>
	<advance width="600"/>
	<outline>
		<contour>
			<point x="120" y="0" type="line"/>
			<point x="342" y="0" type="line" smooth="yes"/>
			<point x="460" y="0"/>
			<point x="532" y="44"/>
			<point x="532" y="136" type="curve" smooth="yes"/>
			<point x="532" y="208"/>
			<point x="477" y="241"/>
			<point x="425" y="253" type="curve"/>
			<point x="425" y="256" type="line"/>
			<point x="471" y="271"/>
			<point x="510" y="298"/>
			<point x="510" y="361" type="curve" smooth="yes"/>
			<point x="510" y="441"/>
			<point x="446" y="478"/>
			<point x="338" y="478" type="curve" smooth="yes"/>
			<point x="120" y="478" type="line"/>
		</contour>
		<contour>
			<point x="150" y="266" type="line"/>
			<point x="150" y="450" type="line"/>
			<point x="329" y="450" type="line" smooth="yes"/>
			<point x="433" y="450"/>
			<point x="478" y="417"/>
			<point x="478" y="359" type="curve" smooth="yes"/>
			<point x="478" y="302"/>
			<point x="434" y="266"/>
			<point x="319" y="266" type="curve" smooth="yes"/>
		</contour>
		<contour>
			<point x="150" y="28" type="line"/>
			<point x="150" y="238" type="line"/>
			<point x="324" y="238" type="line" smooth="yes"/>
			<point x="437" y="238"/>
			<point x="500" y="202"/>
			<point x="500" y="137" type="curve" smooth="yes"/>
			<point x="500" y="65"/>
			<point x="443" y="28"/>
			<point x="332" y="28" type="curve" smooth="yes"/>
		</contour>
		<contour>
			<point name="aboveLC" x="320" y="500" type="move"/>
		</contour>
	</outline>
</glyph>
<glyph name="zhe" format="1">
	<unicode hex="0436"/>
	<advance width="600"/>
	<outline>
		<contour>
			<point x="10" y="0" type="line"/>
			<point x="44" y="0" type="line"/>
			<point x="180" y="238" type="line"/>
			<point x="286" y="238" type="line"/>
			<point x="286" y="0" type="line"/>
			<point x="314" y="0" type="line"/>
			<point x="314" y="238" type="line"/>
			<point x="420" y="238" type="line"/>
			<point x="556" y="0" type="line"/>
			<point x="590" y="0" type="line"/>
			<point x="436" y="266" type="line"/>
			<point x="314" y="266" type="line"/>
			<point x="314" y="478" type="line"/>
			<point x="286" y="478" type="line"/>
			<point x="286" y="266" type="line"/>
			<point x="164" y="266" type="line"/>
		</contour>
		<contour>
			<point x="166" y="240" type="line"/>
			<point x="194" y="243" type="line"/>
			<point x="138" y="386" type="line" smooth="yes"/>
			<point x="106" y="468"/>
			<point x="72" y="490"/>
			<point x="34" y="490" type="curve" smooth="yes"/>
			<point x="27" y="490"/>
			<point x="18" y="488"/>
			<point x="14" y="486" type="curve"/>
			<point x="22" y="456" type="line"/>
			<point x="28" y="458"/>
			<point x="29" y="458"/>
			<point x="36" y="458" type="curve" smooth="yes"/>
			<point x="62" y="458"/>
			<point x="85" y="446"/>
			<point x="112" y="378" type="curve" smooth="yes"/>
		</contour>
		<contour>
			<point x="434" y="240" type="line"/>
			<point x="488" y="378" type="line" smooth="yes"/>
			<point x="515" y="446"/>
			<point x="538" y="458"/>
			<point x="564" y="458" type="curve" smooth="yes"/>
			<point x="571" y="458"/>
			<point x="572" y="458"/>
			<point x="578" y="456" type="curve"/>
			<point x="586" y="486" type="line"/>
			<point x="582" y="488"/>
			<point x="573" y="490"/>
			<point x="566" y="490" type="curve" smooth="yes"/>
			<point x="528" y="490"/>
			<point x="494" y="468"/>
			<point x="462" y="386" type="curve" smooth="yes"/>
			<point x="406" y="243" type="line"/>
		</contour>
		<contour>
			<point name="aboveLC" x="300" y="500" type="move"/>
		</contour>
	</outline>
</glyph>
<glyph name="en" format="2">
	<unicode hex="043D"/>
	<advance width="600"/>
	<outline>
		<contour>
			<point x="110" y="0" type="line"/>
			<point x="140" y="0" type="line"/>
			<point x="140" y="238" type="line"/>
			<point x="460" y="238" type="line"/>
			<point x="460" y="0" type="line"/>
			<point x="490" y="0" type="line"/>
			<point x="490" y="478" type="line"/>
			<point x="460" y="478" type="line"/>
			<point x="460" y="266" type="line"/>
			<point x="140" y="266" type="line"/>
			<point x="140" y="478" type="line"/>
			<point x="110" y="478" type="line"/>
		</contour>
	</outline>
	<anchor name="aboveLC" x="300" y="500"/>
</glyph>
<glyph name="pe" format="1">
	<unicode hex="043F"/>
	<advance width="600"/>
	<outline>
		<contour>
			<point x="110" y="0" type="line"/>
			<point x="140" y="0" type="line"/>
			<point x="140" y="450" type="line"/>
			<point x="460" y="450" type="line"/>
			<point x="460" y="0" type="line"/>
			<point x="490" y="0" type="line"/>
			<point x="490" y="478" type="line"/>
			<point x="110" y="478" type="line"/>
		</contour>
		<contour>
			<point name="aboveLC" x="300" y="500" type="move"/>
		</contour>
	</outline>
</glyph>
<glyph name="sha" format="2">
	<unicode hex="0448"/>
	<advance width="600"/>
	<outline>
		<contour>
			<point x="80" y="0" type="line"/>
			<point x="520" y="0" type="line"/>
			<point x="520" y="478" type="line"/>
			<point x="490" y="478" type="line"/>
			<point x="490" y="28" type="line"/>
			<point x="314" y="28" type="line"/>
			<point x="314" y="478" type="line"/>
			<point x="286" y="478" type="line"/>
			<point x="286" y="28" type="line"/>
			<point x="110" y="28" type="line"/>
			<point x="110" y="478" type="line"/>
			<point x="80" y="478" type="line"/>
		</contour>
	</outline>
	<anchor name="aboveLC" x="300" y="500"/>
</glyph>
<glyph name="shcha" format="2">
	<unicode hex="0449"/>
	<advance width="600"/>
	<outline>
		<contour>
			<point x="80" y="0" type="line"/>
			<point x="520" y="0" type="line"/>
			<point x="520" y="478" type="line"/>
			<point x="490" y="478" type="line"/>
			<point x="490" y="28" type="line"/>
			<point x="314" y="28" type="line"/>
			<point x="314" y="478" type="line"/>
			<point x="286" y="478" type="line"/>
			<point x="286" y="28" type="line"/>
			<point x="110" y="28" type="line"/>
			<point x="110" y="478" type="line"/>
			<point x="80" y="478" type="line"/>
		</contour>
		<contour>
			<point x="554" y="-172" type="line"/>
			<point x="580" y="-172" type="line"/>
			<point x="584" y="12" type="line"/>
			<point x="584" y="28" type="line"/>
			<point x="510" y="28" type="line"/>
			<point x="510" y="0" type="line"/>
			<point x="554" y="0" type="line"/>
		</contour>
	</outline>
	<anchor name="aboveLC" x="300" y="500"/>
</glyph>
<glyph name="yeru" format="1">
	<unicode hex="044B"/>
	<advance width="600"/>
	<outline>
		<contour>
			<point x="96" y="0" type="line"/>
			<point x="220" y="0" type="line" smooth="yes"/>
			<point x="332" y="0"/>
			<point x="398" y="50"/>
			<point x="398" y="142" type="curve" smooth="yes"/>
			<point x="398" y="234"/>
			<point x="332" y="282"/>
			<point x="220" y="282" type="curve" smooth="yes"/>
			<point x="126" y="282" type="line"/>
			<point x="126" y="478" type="line"/>
			<point x="96" y="478" type="line"/>
		</contour>
		<contour>
			<point x="126" y="28" type="line"/>
			<point x="126" y="254" type="line"/>
			<point x="210" y="254" type="line" smooth="yes"/>
			<point x="315" y="254"/>
			<point x="366" y="221"/>
			<point x="366" y="142" type="curve" smooth="yes"/>
			<point x="366" y="63"/>
			<point x="315" y="28"/>
			<point x="210" y="28" type="curve" smooth="yes"/>
		</contour>
		<contour>
			<point x="474" y="0" type="line"/>
			<point x="504" y="0" type="line"/>
			<point x="504" y="478" type="line"/>
			<point x="474" y="478" type="line"/>
		</contour>
		<contour>
			<point name="aboveLC" x="300" y="500" type="move"/>
		</contour>
	</outline>
</glyph>
<glyph name="Yat" format="1">
	<unicode hex="0462"/>
	<advance width="600"/>
	<outline>
		<contour>
			<point x="182" y="0" type="line"/>
			<point x="310" y="0" type="line" smooth="yes"/>
			<point x="459" y="0"/>
			<point x="534" y="62"/>
			<point x="534" y="188" type="curve" smooth="yes"/>
			<point x="534" y="308"/>
			<point x="448" y="358"/>
			<point x="302" y="358" type="curve" smooth="yes"/>
			<point x="214" y="358" type="line"/>
			<point x="214" y="704" type="line"/>
			<point x="182" y="704" type="line"/>
		</contour>
		<contour>
			<point x="214" y="28" type="line"/>
			<point x="214" y="330" type="line"/>
			<point x="290" y="330" type="line" smooth="yes"/>
			<point x="434" y="330"/>
			<point x="502" y="287"/>
			<point x="502" y="186" type="curve" smooth="yes"/>
			<point x="502" y="74"/>
			<point x="436" y="28"/>
			<point x="298" y="28" type="curve" smooth="yes"/>
		</contour>
		<contour>
			<point x="32" y="526" type="line"/>
			<point x="444" y="526" type="line"/>
			<point x="444" y="554" type="line"/>
			<point x="32" y="554" type="line"/>
		</contour>
	</outline>
</glyph>
<glyph name="yat" format="2">
	<unicode hex="0463"/>
	<advance width="600"/>
	<outline>
		<contour>
			<point x="218" y="0" type="line"/>
			<point x="354" y="0" type="line" smooth="yes"/>
			<point x="466" y="0"/>
			<point x="532" y="50"/>
			<point x="532" y="142" type="curve" smooth="yes"/>
			<point x="532" y="234"/>
			<point x="466" y="282"/>
			<point x="354" y="282" type="curve" smooth="yes"/>
			<point x="248" y="282" type="line"/>
			<point x="248" y="450" type="line"/>
			<point x="452" y="450" type="line"/>
			<point x="452" y="478" type="line"/>
			<point x="248" y="478" type="line"/>
			<point x="248" y="618" type="line"/>
			<point x="218" y="618" type="line"/>
			<point x="218" y="478" type="line"/>
			<point x="48" y="478" type="line"/>
			<point x="48" y="450" type="line"/>
			<point x="218" y="450" type="line"/>
		</contour>
		<contour>
			<point x="248" y="28" type="line"/>
			<point x="248" y="254" type="line"/>
			<point x="344" y="254" type="line" smooth="yes"/>
			<point x="449" y="254"/>
			<point x="500" y="221"/>
			<point x="500" y="142" type="curve" smooth="yes"/>
			<point x="500" y="63"/>
			<point x="449" y="28"/>
			<point x="344" y="28" type="curve" smooth="yes"/>
		</contour>
	</outline>
</glyph>
<glyph name="izhitsa" format="2">
	<unicode hex="0475"/>
	<advance width="600"/>
	<outline>
		<contour>
			<point x="278" y="0" type="line"/>
			<point x="318" y="0" type="line"/>
			<point x="444" y="374" type="line" smooth="yes"/>
			<point x="464" y="432"/>
			<point x="478" y="456"/>
			<point x="506" y="456" type="curve" smooth="yes"/>
			<point x="516" y="456"/>
			<point x="522" y="454"/>
			<point x="528" y="450" type="curve"/>
			<point x="538" y="482" type="line"/>
			<point x="526" y="488"/>
			<point x="517" y="490"/>
			<point x="508" y="490" type="curve" smooth="yes"/>
			<point x="460" y="490"/>
			<point x="440" y="456"/>
			<point x="414" y="378" type="curve" smooth="yes"/>
			<point x="344" y="168" type="line" smooth="yes"/>
			<point x="329" y="122"/>
			<point x="314" y="74"/>
			<point x="300" y="32" type="curve"/>
			<point x="296" y="32" type="line"/>
			<point x="280" y="74"/>
			<point x="260" y="122"/>
			<point x="244" y="168" type="curve"/>
			<point x="130" y="478" type="line"/>
			<point x="96" y="478" type="line"/>
		</contour>
	</outline>
	<anchor name="aboveLC" x="310" y="500"/>
</glyph>
<glyph name="Kadescender" format="2">
	<unicode hex="049A"/>
	<advance width="600"/>
	<outline>
		<contour>
			<point x="542" y="-188" type="line"/>
			<point x="568" y="-188" type="line"/>
			<point x="574" y="12" type="line"/>
			<point x="574" y="28" type="line"/>
			<point x="532" y="28" type="line"/>
			<point x="532" y="0" type="line"/>
			<point x="542" y="0" type="line"/>
		</contour>
		<component base="Ka"/>
	</outline>
</glyph>
<glyph name="v.sups" format="2">
	<unicode hex="1D5B"/>
	<advance width="600"/>
	<outline>
		<contour>
			<point x="280" y="410" type="line"/>
			<point x="318" y="410" type="line"/>
			<point x="439" y="726" type="line"/>
			<point x="406" y="726" type="line"/>
			<point x="333" y="530" type="line" smooth="yes"/>
			<point x="321" y="499"/>
			<point x="312" y="468"/>
			<point x="301" y="439" type="curve"/>
			<point x="299" y="439" type="line"/>
			<point x="288" y="468"/>
			<point x="278" y="499"/>
			<point x="266" y="530" type="curve" smooth="yes"/>
			<point x="192" y="726" type="line"/>
			<point x="158" y="726" type="line"/>
		</contour>
	</outline>
</glyph>
<glyph name="exclamquestion" format="1">
	<unicode hex="2049"/>
	<advance width="600"/>
	<outline>
		<contour>
			<point x="402" y="214" type="curve"/>
			<point x="430" y="214" type="line"/>
			<point x="406" y="362"/>
			<point x="564" y="412"/>
			<point x="564" y="552" type="curve" smooth="yes"/>
			<point x="564" y="623"/>
			<point x="517" y="682"/>
			<point x="434" y="682" type="curve" smooth="yes"/>
			<point x="375" y="682"/>
			<point x="336" y="656"/>
			<point x="298" y="608" type="curve"/>
			<point x="320" y="588" type="line"/>
			<point x="355" y="636"/>
			<point x="389" y="654"/>
			<point x="432" y="654" type="curve" smooth="yes"/>
			<point x="502" y="654"/>
			<point x="532" y="605"/>
			<point x="532" y="550" type="curve" smooth="yes"/>
			<point x="532" y="418"/>
			<point x="376" y="368"/>
		</contour>
		<contour>
			<point x="426" y="-12" type="curve" smooth="yes"/>
			<point x="452" y="-12"/>
			<point x="478" y="8"/>
			<point x="478" y="46" type="curve" smooth="yes"/>
			<point x="478" y="84"/>
			<point x="452" y="104"/>
			<point x="426" y="104" type="curve" smooth="yes"/>
			<point x="400" y="104"/>
			<point x="374" y="84"/>
			<point x="374" y="46" type="curve" smooth="yes"/>
			<point x="374" y="8"/>
			<point x="400" y="-12"/>
		</contour>
		<component base="exclam" xOffset="-140"/>
	</outline>
</glyph>
<glyph name="parenright.subs" format="2">
	<unicode hex="208E"/>
	<advance width="600"/>
	<outline>
		<contour>
			<point x="246" y="-240" type="line"/>
			<point x="320" y="-158"/>
			<point x="350" y="-84"/>
			<point x="350" y="24" type="curve" smooth="yes"/>
			<point x="350" y="130"/>
			<point x="320" y="204"/>
			<point x="246" y="286" type="curve"/>
			<point x="226" y="272" type="line"/>
			<point x="304" y="189"/>
			<point x="320" y="112"/>
			<point x="320" y="24" type="curve" smooth="yes"/>
			<point x="320" y="-64"/>
			<point x="303" y="-141"/>
			<point x="226" y="-226" type="curve"/>
		</contour>
	</outline>
</glyph>
<glyph name="won" format="2">
	<unicode hex="20A9"/>
	<advance width="600"/>
	<outline>
		<contour>
			<point x="172" y="0" type="line"/>
			<point x="210" y="0" type="line"/>
			<point x="264" y="340" type="line"/>
			<point x="298" y="570" type="line"/>
			<point x="302" y="570" type="line"/>
			<point x="334" y="342" type="line"/>
			<point x="390" y="0" type="line"/>
			<point x="432" y="0" type="line"/>
			<point x="522" y="640" type="line"/>
			<point x="490" y="640" type="line"/>
			<point x="430" y="156" type="line"/>
			<point x="414" y="30" type="line"/>
			<point x="410" y="30" type="line"/>
			<point x="394" y="156" type="line"/>
			<point x="322" y="600" type="line"/>
			<point x="280" y="600" type="line"/>
			<point x="208" y="156" type="line"/>
			<point x="192" y="30" type="line"/>
			<point x="188" y="30" type="line"/>
			<point x="174" y="156" type="line"/>
			<point x="112" y="640" type="line"/>
			<point x="78" y="640" type="line"/>
		</contour>
		<contour>
			<point x="52" y="312" type="line"/>
			<point x="544" y="312" type="line"/>
			<point x="544" y="342" type="line"/>
			<point x="130" y="342" type="line"/>
			<point x="52" y="338" type="line"/>
		</contour>
	</outline>
</glyph>
<glyph name="servicemark" format="2">
	<unicode hex="2120"/>
	<advance width="600"/>
	<outline>
		<contour>
			<point x="140" y="358" type="curve" smooth="yes"/>
			<point x="200" y="358"/>
			<point x="236" y="396"/>
			<point x="236" y="438" type="curve" smooth="yes"/>
			<point x="236" y="482"/>
			<point x="214" y="504"/>
			<point x="176" y="522" type="curve" smooth="yes"/>
			<point x="126" y="548" type="line" smooth="yes"/>
			<point x="98" y="562"/>
			<point x="80" y="578"/>
			<point x="80" y="602" type="curve" smooth="yes"/>
			<point x="80" y="630"/>
			<point x="102" y="654"/>
			<point x="142" y="654" type="curve" smooth="yes"/>
			<point x="166" y="654"/>
			<point x="190" y="640"/>
			<point x="210" y="622" type="curve"/>
			<point x="228" y="644" type="line"/>
			<point x="208" y="664"/>
			<point x="176" y="680"/>
			<point x="144" y="680" type="curve" smooth="yes"/>
			<point x="90" y="680"/>
			<point x="50" y="652"/>
			<point x="50" y="602" type="curve" smooth="yes"/>
			<point x="50" y="558"/>
			<point x="81" y="536"/>
			<point x="108" y="522" type="curve" smooth="yes"/>
			<point x="158" y="496" type="line" smooth="yes"/>
			<point x="192" y="478"/>
			<point x="206" y="472"/>
			<point x="206" y="438" type="curve" smooth="yes"/>
			<point x="206" y="406"/>
			<point x="182" y="384"/>
			<point x="142" y="384" type="curve" smooth="yes"/>
			<point x="104" y="384"/>
			<point x="80" y="398"/>
			<point x="54" y="424" type="curve"/>
			<point x="34" y="404" type="line"/>
			<point x="58" y="376"/>
			<point x="96" y="358"/>
		</contour>
		<contour>
			<point x="306" y="370" type="line"/>
			<point x="336" y="370" type="line"/>
			<point x="336" y="540" type="line"/>
			<point x="332" y="636" type="line"/>
			<point x="336" y="636" type="line"/>
			<point x="422" y="418" type="line"/>
			<point x="452" y="418" type="line"/>
			<point x="538" y="636" type="line"/>
			<point x="542" y="636" type="line"/>
			<point x="538" y="540" type="line"/>
			<point x="538" y="370" type="line"/>
			<point x="568" y="370" type="line"/>
			<point x="568" y="676" type="line"/>
			<point x="524" y="676" type="line"/>
			<point x="472" y="546" type="line"/>
			<point x="440" y="458" type="line"/>
			<point x="436" y="458" type="line"/>
			<point x="404" y="546" type="line"/>
			<point x="350" y="676" type="line"/>
			<point x="306" y="676" type="line"/>
		</contour>
	</outline>
</glyph>
<glyph name="house" format="2">
	<unicode hex="2302"/>
	<advance width="600"/>
	<outline>
		<contour>
			<point x="60" y="0" type="line"/>
			<point x="540" y="0" type="line"/>
			<point x="540" y="360" type="line"/>
			<point x="318" y="670" type="line"/>
			<point x="282" y="670" type="line"/>
			<point x="60" y="360" type="line"/>
		</contour>
		<contour>
			<point x="90" y="28" type="line"/>
			<point x="90" y="348" type="line"/>
			<point x="204" y="510" type="line"/>
			<point x="298" y="644" type="line"/>
			<point x="302" y="644" type="line"/>
			<point x="396" y="510" type="line"/>
			<point x="510" y="348" type="line"/>
			<point x="510" y="28" type="line"/>
		</contour>
	</outline>
</glyph>
<glyph name="integraltp" format="2">
	<unicode hex="2320"/>
	<advance width="600"/>
	<outline>
		<contour>
			<point x="316" y="-400" type="line"/>
			<point x="316" y="576" type="line"/>
			<point x="316" y="686"/>
			<point x="326" y="760"/>
			<point x="384" y="760" type="curve" smooth="yes"/>
			<point x="398" y="760"/>
			<point x="410" y="758"/>
			<point x="418" y="756" type="curve"/>
			<point x="424" y="782" type="line"/>
			<point x="418" y="786"/>
			<point x="402" y="788"/>
			<point x="386" y="788" type="curve" smooth="yes"/>
			<point x="304" y="788"/>
			<point x="286" y="694"/>
			<point x="286" y="574" type="curve"/>
			<point x="286" y="-400" type="line"/>
		</contour>
	</outline>
</glyph>
<glyph name="heavydnrightbxd" format="1">
	<unicode hex="250F"/>
	<advance width="600"/>
	<outline>
		<contour>
			<point x="615" y="270" type="line"/>
			<point x="615" y="330" type="line"/>
			<point x="270" y="330" type="line"/>
			<point x="270" y="-400" type="line"/>
			<point x="330" y="-400" type="line"/>
			<point x="330" y="270" type="line"/>
		</contour>
	</outline>
</glyph>
<glyph name="lightdiaguprightdnleftbxd" format="1">
	<unicode hex="2571"/>
	<advance width="600"/>
	<outline>
		<contour>
			<point x="0" y="-266" type="line"/>
			<point x="0" y="-300" type="line"/>
			<point x="17" y="-300" type="line"/>
			<point x="600" y="866" type="line"/>
			<point x="600" y="900" type="line"/>
			<point x="583" y="900" type="line"/>
		</contour>
	</outline>
</glyph>
<glyph name="lightdnbxd" format="1">
	<unicode hex="2577"/>
	<advance width="600"/>
	<outline>
		<contour>
			<point x="285" y="-400" type="line"/>
			<point x="315" y="-400" type="line"/>
			<point x="315" y="315" type="line"/>
			<point x="285" y="315" type="line"/>
		</contour>
	</outline>
</glyph>
<glyph name="upeighthblock" format="1">
	<unicode hex="2594"/>
	<advance width="600"/>
	<outline>
		<contour>
			<point x="0" y="825" type="line"/>
			<point x="600" y="825" type="line"/>
			<point x="600" y="1000" type="line"/>
			<point x="0" y="1000" type="line"/>
		</contour>
	</outline>
</glyph>
<glyph name="trianglerightwhite" format="2">
	<unicode hex="25B7"/>
	<advance width="600"/>
	<outline>
		<contour>
			<point x="58" y="110" type="line"/>
			<point x="60" y="110" type="line"/>
			<point x="562" y="349" type="line"/>
			<point x="562" y="351" type="line"/>
			<point x="60" y="590" type="line"/>
			<point x="58" y="590" type="line"/>
		</contour>
		<contour>
			<point x="80" y="146" type="line"/>
			<point x="80" y="554" type="line"/>
			<point x="513" y="350" type="line"/>
		</contour>
	</outline>
</glyph>
<glyph name="trianglesmalldownblack" format="1">
	<unicode hex="25BE"/>
	<advance width="600"/>
	<outline>
		<contour>
			<point x="299" y="112" type="line"/>
			<point x="301" y="112" type="line"/>
			<point x="448" y="380" type="line"/>
			<point x="448" y="382" type="line"/>
			<point x="152" y="382" type="line"/>
			<point x="152" y="380" type="line"/>
		</contour>
	</outline>
</glyph>
<glyph name="fisheye" format="2">
	<unicode hex="25C9"/>
	<advance width="600"/>
	<outline>
		<contour>
			<point x="300" y="94" type="curve" smooth="yes"/>
			<point x="433" y="94"/>
			<point x="552" y="185"/>
			<point x="552" y="350" type="curve" smooth="yes"/>
			<point x="552" y="512"/>
			<point x="433" y="606"/>
			<point x="300" y="606" type="curve" smooth="yes"/>
			<point x="167" y="606"/>
			<point x="48" y="512"/>
			<point x="48" y="350" type="curve" smooth="yes"/>
			<point x="48" y="185"/>
			<point x="167" y="94"/>
		</contour>
		<contour>
			<point x="300" y="126" type="curve" smooth="yes"/>
			<point x="191" y="126"/>
			<point x="82" y="203"/>
			<point x="82" y="350" type="curve" smooth="yes"/>
			<point x="82" y="497"/>
			<point x="191" y="574"/>
			<point x="300" y="574" type="curve" smooth="yes"/>
			<point x="409" y="574"/>
			<point x="518" y="497"/>
			<point x="518" y="350" type="curve" smooth="yes"/>
			<point x="518" y="203"/>
			<point x="409" y="126"/>
		</contour>
		<contour>
			<point x="300" y="188" type="curve" smooth="yes"/>
			<point x="382" y="188"/>
			<point x="458" y="248"/>
			<point x="458" y="350" type="curve" smooth="yes"/>
			<point x="458" y="450"/>
			<point x="382" y="512"/>
			<point x="300" y="512" type="curve" smooth="yes"/>
			<point x="218" y="512"/>
			<point x="142" y="450"/>
			<point x="142" y="350" type="curve" smooth="yes"/>
			<point x="142" y="248"/>
			<point x="218" y="188"/>
		</contour>
	</outline>
</glyph>
<glyph name="male" format="2">
	<unicode hex="2642"/>
	<advance width="600"/>
	<outline>
		<contour>
			<point x="224" y="22" type="curve" smooth="yes"/>
			<point x="352" y="22"/>
			<point x="452" y="118"/>
			<point x="452" y="246" type="curve" smooth="yes"/>
			<point x="452" y="374"/>
			<point x="352" y="470"/>
			<point x="224" y="470" type="curve" smooth="yes"/>
			<point x="96" y="470"/>
			<point x="-4" y="374"/>
			<point x="-4" y="246" type="curve" smooth="yes"/>
			<point x="-4" y="118"/>
			<point x="96" y="22"/>
		</contour>
		<contour>
			<point x="224" y="50" type="curve" smooth="yes"/>
			<point x="114" y="50"/>
			<point x="28" y="130"/>
			<point x="28" y="246" type="curve" smooth="yes"/>
			<point x="28" y="362"/>
			<point x="114" y="442"/>
			<point x="224" y="442" type="curve" smooth="yes"/>
			<point x="334" y="442"/>
			<point x="420" y="362"/>
			<point x="420" y="246" type="curve" smooth="yes"/>
			<point x="420" y="130"/>
			<point x="334" y="50"/>
		</contour>
		<contour>
			<point x="372" y="398" type="line"/>
			<point x="576" y="603" type="line"/>
			<point x="569" y="388" type="line"/>
			<point x="597" y="388" type="line"/>
			<point x="600" y="644" type="line"/>
			<point x="597" y="647" type="line"/>
			<point x="342" y="644" type="line"/>
			<point x="342" y="616" type="line"/>
			<point x="556" y="623" type="line"/>
			<point x="352" y="418" type="line"/>
		</contour>
	</outline>
</glyph>
<glyph name="bracketleftwhite" format="2">
	<unicode hex="27E6"/>
	<advance width="600"/>
	<outline>
		<contour>
			<point x="216" y="-152" type="line"/>
			<point x="506" y="-152" type="line"/>
			<point x="506" y="-130" type="line"/>
			<point x="306" y="-130" type="line"/>
			<point x="306" y="686" type="line"/>
			<point x="506" y="686" type="line"/>
			<point x="506" y="708" type="line"/>
			<point x="216" y="708" type="line"/>
		</contour>
		<contour>
			<point x="242" y="-130" type="line"/>
			<point x="242" y="686" type="line"/>
			<point x="280" y="686" type="line"/>
			<point x="280" y="-130" type="line"/>
		</contour>
	</outline>
</glyph>
<glyph name="lock" format="2">
	<unicode hex="1F512"/>
	<advance width="600"/>
	<outline>
		<contour>
			<point x="100" y="-70" type="line"/>
			<point x="500" y="-70" type="line"/>
			<point x="540" y="-30" type="line"/>
			<point x="540" y="480" type="line"/>
			<point x="500" y="520" type="line"/>
			<point x="454" y="520" type="line"/>
			<point x="454" y="680" type="line" smooth="yes"/>
			<point x="454" y="792"/>
			<point x="398" y="856"/>
			<point x="300" y="856" type="curve" smooth="yes"/>
			<point x="202" y="856"/>
			<point x="146" y="792"/>
			<point x="146" y="680" type="curve"/>
			<point x="146" y="520" type="line"/>
			<point x="100" y="520" type="line"/>
			<point x="60" y="480" type="line"/>
			<point x="60" y="-30" type="line"/>
		</contour>
		<contour>
			<point x="244" y="52" type="line"/>
			<point x="272" y="226" type="line"/>
			<point x="230" y="242"/>
			<point x="214" y="270"/>
			<point x="214" y="308" type="curve" smooth="yes"/>
			<point x="214" y="357"/>
			<point x="252" y="392"/>
			<point x="300" y="392" type="curve" smooth="yes"/>
			<point x="348" y="392"/>
			<point x="386" y="357"/>
			<point x="386" y="308" type="curve" smooth="yes"/>
			<point x="386" y="270"/>
			<point x="370" y="242"/>
			<point x="328" y="226" type="curve"/>
			<point x="356" y="52" type="line"/>
			<point x="310" y="32" type="line"/>
			<point x="290" y="32" type="line"/>
		</contour>
		<contour>
			<point x="178" y="520" type="line"/>
			<point x="178" y="680" type="line" smooth="yes"/>
			<point x="178" y="772"/>
			<point x="218" y="826"/>
			<point x="300" y="826" type="curve" smooth="yes"/>
			<point x="382" y="826"/>
			<point x="422" y="772"/>
			<point x="422" y="680" type="curve" smooth="yes"/>
			<point x="422" y="520" type="line"/>
		</contour>
	</outline>
</glyph>
<glyph name="De.a" format="2">
	<advance width="600"/>
	<outline>
		<contour>
			<point x="34" y="-188" type="line"/>
			<point x="60" y="-188" type="line"/>
			<point x="60" y="0" type="line"/>
			<point x="536" y="0" type="line"/>
			<point x="536" y="-188" type="line"/>
			<point x="562" y="-188" type="line"/>
			<point x="568" y="12" type="line"/>
			<point x="568" y="28" type="line"/>
			<point x="28" y="28" type="line"/>
			<point x="28" y="12" type="line"/>
		</contour>
		<component base="Lambda"/>
	</outline>
</glyph>
<glyph name="Enhook" format="2">
	<advance width="600"/>
	<outline>
		<contour>
			<point x="416" y="-152" type="curve" smooth="yes"/>
			<point x="478" y="-152"/>
			<point x="508" y="-113"/>
			<point x="508" y="-20" type="curve" smooth="yes"/>
			<point x="508" y="660" type="line"/>
			<point x="476" y="660" type="line"/>
			<point x="476" y="366" type="line"/>
			<point x="124" y="366" type="line"/>
			<point x="124" y="660" type="line"/>
			<point x="92" y="660" type="line"/>
			<point x="92" y="0" type="line"/>
			<point x="124" y="0" type="line"/>
			<point x="124" y="338" type="line"/>
			<point x="476" y="338" type="line"/>
			<point x="476" y="0" type="line" smooth="yes"/>
			<point x="476" y="-76"/>
			<point x="467" y="-120"/>
			<point x="418" y="-120" type="curve" smooth="yes"/>
			<point x="400" y="-120"/>
			<point x="381" y="-114"/>
			<point x="370" y="-110" type="curve"/>
			<point x="362" y="-140" type="line"/>
			<point x="375" y="-146"/>
			<point x="397" y="-152"/>
		</contour>
	</outline>
</glyph>
<glyph name="Ghedescender" format="2">
	<advance width="600"/>
	<outline>
		<contour>
			<point x="224" y="-188" type="line"/>
			<point x="250" y="-188" type="line"/>
			<point x="256" y="12" type="line"/>
			<point x="256" y="28" type="line"/>
			<point x="178" y="28" type="line"/>
			<point x="178" y="0" type="line"/>
			<point x="224" y="0" type="line"/>
		</contour>
		<component base="Ghe"/>
	</outline>
</glyph>
<glyph name="Ka.a" format="2">
	<advance width="600"/>
	<outline>
		<contour>
			<point x="128" y="0" type="line"/>
			<point x="160" y="0" type="line"/>
			<point x="160" y="338" type="line"/>
			<point x="306" y="338" type="line"/>
			<point x="530" y="0" type="line"/>
			<point x="568" y="0" type="line"/>
			<point x="332" y="354" type="line"/>
			<point x="538" y="660" type="line"/>
			<point x="502" y="660" type="line"/>
			<point x="304" y="366" type="line"/>
			<point x="160" y="366" type="line"/>
			<point x="160" y="660" type="line"/>
			<point x="128" y="660" type="line"/>
		</contour>
	</outline>
	<anchor name="aboveUC" x="310" y="682"/>
</glyph>
<glyph name="Kabashkir.a" format="2">
	<advance width="600"/>
	<outline>
		<contour>
			<point x="230" y="0" type="line"/>
			<point x="262" y="0" type="line"/>
			<point x="262" y="338" type="line"/>
			<point x="358" y="338" type="line"/>
			<point x="562" y="0" type="line"/>
			<point x="600" y="0" type="line"/>
			<point x="384" y="354" type="line"/>
			<point x="570" y="660" type="line"/>
			<point x="534" y="660" type="line"/>
			<point x="356" y="366" type="line"/>
			<point x="262" y="366" type="line"/>
			<point x="262" y="660" type="line"/>
			<point x="14" y="660" type="line"/>
			<point x="14" y="632" type="line"/>
			<point x="230" y="632" type="line"/>
		</contour>
	</outline>
</glyph>
<glyph name="Kadescender.a" format="2">
	<advance width="600"/>
	<outline>
		<contour>
			<point x="528" y="-188" type="line"/>
			<point x="554" y="-188" type="line"/>
			<point x="560" y="12" type="line"/>
			<point x="560" y="28" type="line"/>
			<point x="504" y="28" type="line"/>
			<point x="504" y="0" type="line"/>
			<point x="528" y="0" type="line"/>
		</contour>
		<component base="Ka.a"/>
	</outline>
</glyph>
<glyph name="Kahook.a" format="2">
	<advance width="600"/>
	<outline>
		<contour>
			<point x="326" y="-234" type="curve" smooth="yes"/>
			<point x="413" y="-234"/>
			<point x="518" y="-164"/>
			<point x="518" y="60" type="curve" smooth="yes"/>
			<point x="518" y="272"/>
			<point x="414" y="364"/>
			<point x="252" y="364" type="curve"/>
			<point x="304" y="354" type="line"/>
			<point x="510" y="660" type="line"/>
			<point x="474" y="660" type="line"/>
			<point x="276" y="366" type="line"/>
			<point x="132" y="366" type="line"/>
			<point x="132" y="660" type="line"/>
			<point x="100" y="660" type="line"/>
			<point x="100" y="0" type="line"/>
			<point x="132" y="0" type="line"/>
			<point x="132" y="338" type="line"/>
			<point x="234" y="338" type="line" smooth="yes"/>
			<point x="392" y="338"/>
			<point x="484" y="256"/>
			<point x="484" y="60" type="curve" smooth="yes"/>
			<point x="484" y="-140"/>
			<point x="395" y="-204"/>
			<point x="324" y="-204" type="curve" smooth="yes"/>
			<point x="308" y="-204"/>
			<point x="283" y="-198"/>
			<point x="274" y="-194" type="curve"/>
			<point x="266" y="-224" type="line"/>
			<point x="278" y="-228"/>
			<point x="306" y="-234"/>
		</contour>
	</outline>
</glyph>
<glyph name="Zhe.a" format="2">
	<advance width="600"/>
	<outline>
		<contour>
			<point x="4" y="0" type="line"/>
			<point x="42" y="0" type="line"/>
			<point x="188" y="338" type="line"/>
			<point x="286" y="338" type="line"/>
			<point x="286" y="0" type="line"/>
			<point x="314" y="0" type="line"/>
			<point x="314" y="338" type="line"/>
			<point x="412" y="338" type="line"/>
			<point x="558" y="0" type="line"/>
			<point x="596" y="0" type="line"/>
			<point x="436" y="354" type="line"/>
			<point x="576" y="660" type="line"/>
			<point x="540" y="660" type="line"/>
			<point x="408" y="366" type="line"/>
			<point x="314" y="366" type="line"/>
			<point x="314" y="660" type="line"/>
			<point x="286" y="660" type="line"/>
			<point x="286" y="366" type="line"/>
			<point x="192" y="366" type="line"/>
			<point x="60" y="660" type="line"/>
			<point x="24" y="660" type="line"/>
			<point x="164" y="354" type="line"/>
		</contour>
	</outline>
	<anchor name="aboveUC" x="300" y="682"/>
</glyph>
<glyph name="Zhedescender.a" format="2">
	<advance width="600"/>
	<outline>
		<contour>
			<point x="584" y="-188" type="line"/>
			<point x="610" y="-188" type="line"/>
			<point x="616" y="12" type="line"/>
			<point x="616" y="28" type="line"/>
			<point x="560" y="28" type="line"/>
			<point x="560" y="0" type="line"/>
			<point x="584" y="0" type="line"/>
		</contour>
		<component base="Zhe.a"/>
	</outline>
</glyph>
<glyph name="a.sups" format="1">
	<advance width="600"/>
	<outline>
		<contour>
			<point x="280" y="402" type="curve" smooth="yes"/>
			<point x="325" y="402"/>
			<point x="368" y="425"/>
			<point x="403" y="451" type="curve"/>
			<point x="404" y="451" type="line"/>
			<point x="407" y="410" type="line"/>
			<point x="434" y="410" type="line"/>
			<point x="434" y="612" type="line" smooth="yes"/>
			<point x="434" y="681"/>
			<point x="404" y="734"/>
			<point x="322" y="734" type="curve" smooth="yes"/>
			<point x="268" y="734"/>
			<point x="218" y="709"/>
			<point x="193" y="693" type="curve"/>
			<point x="208" y="670" type="line"/>
			<point x="233" y="686"/>
			<point x="273" y="707"/>
			<point x="319" y="707" type="curve" smooth="yes"/>
			<point x="386" y="707"/>
			<point x="402" y="659"/>
			<point x="402" y="608" type="curve"/>
			<point x="251" y="592"/>
			<point x="178" y="560"/>
			<point x="178" y="489" type="curve" smooth="yes"/>
			<point x="178" y="430"/>
			<point x="226" y="402"/>
		</contour>
		<contour>
			<point x="286" y="429" type="curve" smooth="yes"/>
			<point x="246" y="429"/>
			<point x="210" y="447"/>
			<point x="210" y="491" type="curve" smooth="yes"/>
			<point x="210" y="541"/>
			<point x="263" y="569"/>
			<point x="402" y="584" type="curve"/>
			<point x="402" y="479" type="line"/>
			<point x="361" y="447"/>
			<point x="324" y="429"/>
		</contour>
	</outline>
</glyph>
<glyph name="ain" format="2">
	<advance width="464"/>
	<outline>
		<contour>
			<point x="80" y="-12" type="curve" smooth="yes"/>
			<point x="134" y="-12"/>
			<point x="186" y="30"/>
			<point x="232" y="82" type="curve"/>
			<point x="277" y="30"/>
			<point x="330" y="-12"/>
			<point x="384" y="-12" type="curve" smooth="yes"/>
			<point x="408" y="-12"/>
			<point x="430" y="-8"/>
			<point x="448" y="6" type="curve"/>
			<point x="436" y="28" type="line"/>
			<point x="420" y="18"/>
			<point x="405" y="16"/>
			<point x="387" y="16" type="curve" smooth="yes"/>
			<point x="341" y="16"/>
			<point x="298" y="50"/>
			<point x="254" y="102" type="curve"/>
			<point x="324" y="170"/>
			<point x="386" y="250"/>
			<point x="386" y="334" type="curve" smooth="yes"/>
			<point x="386" y="428"/>
			<point x="339" y="490"/>
			<point x="232" y="490" type="curve" smooth="yes"/>
			<point x="125" y="490"/>
			<point x="78" y="428"/>
			<point x="78" y="334" type="curve" smooth="yes"/>
			<point x="78" y="250"/>
			<point x="138" y="170"/>
			<point x="210" y="102" type="curve"/>
			<point x="166" y="50"/>
			<point x="122" y="16"/>
			<point x="77" y="16" type="curve" smooth="yes"/>
			<point x="59" y="16"/>
			<point x="44" y="18"/>
			<point x="28" y="28" type="curve"/>
			<point x="16" y="6" type="line"/>
			<point x="34" y="-8"/>
			<point x="56" y="-12"/>
		</contour>
	</outline>
	<anchor name="aboveLC" x="230" y="502"/>
	<anchor name="belowLC" x="230" y="-22"/>
</glyph>
<glyph name="aogonek.a" format="1">
	<advance width="600"/>
	<outline>
		<contour>
			<point x="454" y="-224" type="curve" smooth="yes"/>
			<point x="492" y="-224"/>
			<point x="512" y="-208"/>
			<point x="532" y="-188" type="curve"/>
			<point x="514" y="-170" type="line"/>
			<point x="500" y="-184"/>
			<point x="482" y="-196"/>
			<point x="456" y="-196" type="curve" smooth="yes"/>
			<point x="423" y="-196"/>
			<point x="392" y="-176"/>
			<point x="392" y="-134" type="curve" smooth="yes"/>
			<point x="392" y="-90"/>
			<point x="420" y="-48"/>
			<point x="490" y="-8" type="curve"/>
			<point x="490" y="478" type="line"/>
			<point x="464" y="478" type="line"/>
			<point x="460" y="422" type="line"/>
			<point x="458" y="422" type="line"/>
			<point x="409" y="464"/>
			<point x="360" y="490"/>
			<point x="298" y="490" type="curve" smooth="yes"/>
			<point x="177" y="490"/>
			<point x="70" y="392"/>
			<point x="70" y="238" type="curve" smooth="yes"/>
			<point x="70" y="76"/>
			<point x="156" y="-12"/>
			<point x="282" y="-12" type="curve" smooth="yes"/>
			<point x="352" y="-12"/>
			<point x="415" y="29"/>
			<point x="458" y="74" type="curve"/>
			<point x="460" y="74" type="line"/>
			<point x="464" y="2" type="line"/>
			<point x="400" y="-38"/>
			<point x="362" y="-82"/>
			<point x="362" y="-136" type="curve" smooth="yes"/>
			<point x="362" y="-196"/>
			<point x="401" y="-224"/>
		</contour>
		<contour>
			<point x="284" y="16" type="curve" smooth="yes"/>
			<point x="170" y="16"/>
			<point x="102" y="106"/>
			<point x="102" y="238" type="curve" smooth="yes"/>
			<point x="102" y="362"/>
			<point x="188" y="462"/>
			<point x="296" y="462" type="curve" smooth="yes"/>
			<point x="349" y="462"/>
			<point x="402" y="441"/>
			<point x="460" y="386" type="curve"/>
			<point x="460" y="110" type="line"/>
			<point x="403" y="50"/>
			<point x="343" y="16"/>
		</contour>
		<contour>
			<point name="aboveLC" x="300" y="500" type="move"/>
		</contour>
	</outline>
</glyph>
<glyph name="betalatin" format="2">
	<advance width="536"/>
	<outline>
		<contour>
			<point x="96" y="-222" type="line"/>
			<point x="126" y="-222" type="line"/>
			<point x="126" y="-42" type="line"/>
			<point x="124" y="68" type="line"/>
			<point x="174" y="11"/>
			<point x="240" y="-12"/>
			<point x="306" y="-12" type="curve" smooth="yes"/>
			<point x="406" y="-12"/>
			<point x="490" y="68"/>
			<point x="490" y="188" type="curve" smooth="yes"/>
			<point x="490" y="325"/>
			<point x="398" y="376"/>
			<point x="316" y="388" type="curve"/>
			<point x="316" y="392" type="line"/>
			<point x="384" y="421"/>
			<point x="430" y="490"/>
			<point x="430" y="568" type="curve" smooth="yes"/>
			<point x="430" y="678"/>
			<point x="355" y="734"/>
			<point x="272" y="734" type="curve" smooth="yes"/>
			<point x="161" y="734"/>
			<point x="96" y="648"/>
			<point x="96" y="512" type="curve" smooth="yes"/>
		</contour>
		<contour>
			<point x="306" y="16" type="curve" smooth="yes"/>
			<point x="246" y="16"/>
			<point x="180" y="35"/>
			<point x="126" y="104" type="curve"/>
			<point x="126" y="498" type="line" smooth="yes"/>
			<point x="126" y="638"/>
			<point x="185" y="706"/>
			<point x="274" y="706" type="curve" smooth="yes"/>
			<point x="341" y="706"/>
			<point x="398" y="660"/>
			<point x="398" y="568" type="curve" smooth="yes"/>
			<point x="398" y="474"/>
			<point x="343" y="400"/>
			<point x="228" y="400" type="curve" smooth="yes"/>
			<point x="224" y="400" type="line"/>
			<point x="224" y="372" type="line"/>
			<point x="242" y="372" type="line" smooth="yes"/>
			<point x="376" y="372"/>
			<point x="458" y="304"/>
			<point x="458" y="188" type="curve" smooth="yes"/>
			<point x="458" y="84"/>
			<point x="390" y="16"/>
		</contour>
	</outline>
	<anchor name="aboveUC" x="280" y="732"/>
	<anchor name="belowLC" x="320" y="-22"/>
</glyph>
<glyph name="caroncmb.cap" format="1">
	<advance width="600"/>
	<outline>
		<contour>
			<point x="286" y="710" type="line"/>
			<point x="314" y="710" type="line"/>
			<point x="430" y="824" type="line"/>
			<point x="416" y="840" type="line"/>
			<point x="302" y="740" type="line"/>
			<point x="298" y="740" type="line"/>
			<point x="184" y="840" type="line"/>
			<point x="170" y="824" type="line"/>
		</contour>
		<contour>
			<point name="_aboveUC" x="300" y="680" type="move"/>
		</contour>
	</outline>
</glyph>
<glyph name="chilatin" format="2">
	<advance width="444"/>
	<outline>
		<contour>
			<point x="18" y="-222" type="line"/>
			<point x="50" y="-222" type="line"/>
			<point x="160" y="12" type="line"/>
			<point x="173" y="41"/>
			<point x="202" y="107"/>
			<point x="216" y="138" type="curve"/>
			<point x="220" y="138" type="line"/>
			<point x="236" y="107"/>
			<point x="270" y="37"/>
			<point x="282" y="12" type="curve"/>
			<point x="392" y="-222" type="line"/>
			<point x="426" y="-222" type="line"/>
			<point x="238" y="160" type="line"/>
			<point x="408" y="478" type="line"/>
			<point x="376" y="478" type="line"/>
			<point x="280" y="292" type="line"/>
			<point x="267" y="265"/>
			<point x="238" y="211"/>
			<point x="224" y="184" type="curve"/>
			<point x="220" y="184" type="line"/>
			<point x="206" y="211"/>
			<point x="174" y="271"/>
			<point x="162" y="292" type="curve"/>
			<point x="66" y="478" type="line"/>
			<point x="32" y="478" type="line"/>
			<point x="202" y="162" type="line"/>
		</contour>
	</outline>
	<anchor name="aboveLC" x="230" y="502"/>
	<anchor name="belowLC" x="230" y="-218"/>
</glyph>
<glyph name="circumflexbrevecmb" format="1">
	<advance width="600"/>
	<outline>
		<contour>
			<point x="194" y="574" type="line"/>
			<point x="298" y="638" type="line"/>
			<point x="302" y="638" type="line"/>
			<point x="406" y="574" type="line"/>
			<point x="420" y="592" type="line"/>
			<point x="314" y="670" type="line"/>
			<point x="286" y="670" type="line"/>
			<point x="180" y="592" type="line"/>
		</contour>
		<contour>
			<point x="300" y="694" type="curve" smooth="yes"/>
			<point x="380" y="694"/>
			<point x="417" y="739"/>
			<point x="422" y="776" type="curve"/>
			<point x="396" y="780" type="line"/>
			<point x="391" y="748"/>
			<point x="361" y="720"/>
			<point x="300" y="720" type="curve" smooth="yes"/>
			<point x="239" y="720"/>
			<point x="209" y="748"/>
			<point x="204" y="780" type="curve"/>
			<point x="178" y="776" type="line"/>
			<point x="183" y="739"/>
			<point x="220" y="694"/>
		</contour>
		<contour>
			<point name="_aboveLC" x="300" y="500" type="move"/>
		</contour>
	</outline>
</glyph>
<glyph name="circumflexgrave.cap" format="2">
	<advance width="600"/>
	<outline>
		<contour>
			<point x="204" y="710" type="line"/>
			<point x="298" y="778" type="line"/>
			<point x="302" y="778" type="line"/>
			<point x="396" y="710" type="line"/>
			<point x="410" y="726" type="line"/>
			<point x="314" y="808" type="line"/>
			<point x="286" y="808" type="line"/>
			<point x="190" y="726" type="line"/>
		</contour>
		<contour>
			<point x="204" y="766" type="line"/>
			<point x="222" y="780" type="line"/>
			<point x="148" y="882" type="line"/>
			<point x="124" y="864" type="line"/>
		</contour>
	</outline>
	<anchor name="_aboveUC" x="300" y="680"/>
</glyph>
<glyph name="de.a" format="2">
	<advance width="600"/>
	<outline>
		<contour>
			<point x="36" y="-172" type="line"/>
			<point x="62" y="-172" type="line"/>
			<point x="62" y="0" type="line"/>
			<point x="456" y="0" type="line"/>
			<point x="456" y="-172" type="line"/>
			<point x="482" y="-172" type="line"/>
			<point x="486" y="12" type="line"/>
			<point x="486" y="28" type="line"/>
			<point x="32" y="28" type="line"/>
			<point x="32" y="12" type="line"/>
		</contour>
		<component base="vturned"/>
	</outline>
</glyph>
<glyph name="dieresiscaroncmb.cap" format="1">
	<advance width="600"/>
	<outline>
		<contour>
			<point x="204" y="728" type="curve" smooth="yes"/>
			<point x="222" y="728"/>
			<point x="236" y="740"/>
			<point x="236" y="760" type="curve" smooth="yes"/>
			<point x="236" y="780"/>
			<point x="222" y="792"/>
			<point x="204" y="792" type="curve" smooth="yes"/>
			<point x="186" y="792"/>
			<point x="172" y="780"/>
			<point x="172" y="760" type="curve" smooth="yes"/>
			<point x="172" y="740"/>
			<point x="186" y="728"/>
		</contour>
		<contour>
			<point x="396" y="728" type="curve" smooth="yes"/>
			<point x="414" y="728"/>
			<point x="428" y="740"/>
			<point x="428" y="760" type="curve" smooth="yes"/>
			<point x="428" y="780"/>
			<point x="414" y="792"/>
			<point x="396" y="792" type="curve" smooth="yes"/>
			<point x="378" y="792"/>
			<point x="364" y="780"/>
			<point x="364" y="760" type="curve" smooth="yes"/>
			<point x="364" y="740"/>
			<point x="378" y="728"/>
		</contour>
		<contour>
			<point x="286" y="826" type="line"/>
			<point x="314" y="826" type="line"/>
			<point x="420" y="918" type="line"/>
			<point x="406" y="936" type="line"/>
			<point x="302" y="858" type="line"/>
			<point x="298" y="858" type="line"/>
			<point x="194" y="936" type="line"/>
			<point x="180" y="918" type="line"/>
		</contour>
		<contour>
			<point name="_aboveUC" x="300" y="680" type="move"/>
		</contour>
	</outline>
</glyph>
<glyph name="dieresistonoscmb" format="1">
	<advance width="600"/>
	<outline>
		<contour>
			<point x="202" y="604" type="curve" smooth="yes"/>
			<point x="222" y="604"/>
			<point x="236" y="616"/>
			<point x="236" y="634" type="curve" smooth="yes"/>
			<point x="236" y="654"/>
			<point x="222" y="668"/>
			<point x="202" y="668" type="curve" smooth="yes"/>
			<point x="182" y="668"/>
			<point x="168" y="654"/>
			<point x="168" y="634" type="curve" smooth="yes"/>
			<point x="168" y="616"/>
			<point x="182" y="604"/>
		</contour>
		<contour>
			<point x="266" y="566" type="line"/>
			<point x="290" y="560" type="line"/>
			<point x="362" y="764" type="line"/>
			<point x="324" y="774" type="line"/>
		</contour>
		<contour>
			<point x="398" y="604" type="curve" smooth="yes"/>
			<point x="418" y="604"/>
			<point x="432" y="616"/>
			<point x="432" y="634" type="curve" smooth="yes"/>
			<point x="432" y="654"/>
			<point x="418" y="668"/>
			<point x="398" y="668" type="curve" smooth="yes"/>
			<point x="378" y="668"/>
			<point x="364" y="654"/>
			<point x="364" y="634" type="curve" smooth="yes"/>
			<point x="364" y="616"/>
			<point x="378" y="604"/>
		</contour>
		<contour>
			<point name="_aboveLC" x="300" y="500" type="move"/>
		</contour>
	</outline>
</glyph>
<glyph name="dotaccentcmb.cap" format="2">
	<advance width="600"/>
	<outline>
		<contour>
			<point x="300" y="724" type="curve" smooth="yes"/>
			<point x="318" y="724"/>
			<point x="334" y="738"/>
			<point x="334" y="760" type="curve" smooth="yes"/>
			<point x="334" y="780"/>
			<point x="318" y="794"/>
			<point x="300" y="794" type="curve" smooth="yes"/>
			<point x="282" y="794"/>
			<point x="266" y="780"/>
			<point x="266" y="760" type="curve" smooth="yes"/>
			<point x="266" y="738"/>
			<point x="282" y="724"/>
		</contour>
	</outline>
	<anchor name="_aboveUC" x="300" y="680"/>
</glyph>
<glyph name="enhook" format="2">
	<advance width="600"/>
	<outline>
		<contour>
			<point x="382" y="-180" type="curve" smooth="yes"/>
			<point x="455" y="-180"/>
			<point x="490" y="-137"/>
			<point x="490" y="-38" type="curve" smooth="yes"/>
			<point x="490" y="478" type="line"/>
			<point x="460" y="478" type="line"/>
			<point x="460" y="266" type="line"/>
			<point x="140" y="266" type="line"/>
			<point x="140" y="478" type="line"/>
			<point x="110" y="478" type="line"/>
			<point x="110" y="0" type="line"/>
			<point x="140" y="0" type="line"/>
			<point x="140" y="238" type="line"/>
			<point x="460" y="238" type="line"/>
			<point x="460" y="-34" type="line" smooth="yes"/>
			<point x="460" y="-102"/>
			<point x="448" y="-152"/>
			<point x="384" y="-152" type="curve" smooth="yes"/>
			<point x="360" y="-152"/>
			<point x="336" y="-145"/>
			<point x="322" y="-140" type="curve"/>
			<point x="314" y="-166" type="line"/>
			<point x="330" y="-173"/>
			<point x="359" y="-180"/>
		</contour>
	</outline>
</glyph>
<glyph name="four.subs" format="1">
	<advance width="600"/>
	<outline>
		<contour>
			<point x="354" y="-170" type="line"/>
			<point x="382" y="-170" type="line"/>
			<point x="382" y="104" type="line"/>
			<point x="354" y="104" type="line"/>
		</contour>
		<contour>
			<point x="158" y="-52" type="line"/>
			<point x="440" y="-52" type="line"/>
			<point x="440" y="-26" type="line"/>
			<point x="196" y="-26" type="line"/>
			<point x="348" y="218" type="line"/>
			<point x="326" y="232" type="line"/>
			<point x="158" y="-36" type="line"/>
		</contour>
	</outline>
</glyph>
<glyph name="ghedescender" format="2">
	<advance width="600"/>
	<outline>
		<contour>
			<point x="234" y="-172" type="line"/>
			<point x="260" y="-172" type="line"/>
			<point x="264" y="12" type="line"/>
			<point x="264" y="28" type="line"/>
			<point x="190" y="28" type="line"/>
			<point x="190" y="0" type="line"/>
			<point x="234" y="0" type="line"/>
		</contour>
		<component base="ghe"/>
	</outline>
</glyph>
<glyph name="glottalstoplatin" format="2">
	<advance width="392"/>
	<outline>
		<contour>
			<point x="160" y="0" type="line"/>
			<point x="190" y="0" type="line"/>
			<point x="190" y="172" type="line"/>
			<point x="278" y="218"/>
			<point x="336" y="266"/>
			<point x="336" y="354" type="curve" smooth="yes"/>
			<point x="336" y="442"/>
			<point x="270" y="490"/>
			<point x="186" y="490" type="curve" smooth="yes"/>
			<point x="110" y="490"/>
			<point x="56" y="452"/>
			<point x="24" y="416" type="curve"/>
			<point x="42" y="398" type="line"/>
			<point x="76" y="432"/>
			<point x="122" y="462"/>
			<point x="186" y="462" type="curve" smooth="yes"/>
			<point x="258" y="462"/>
			<point x="306" y="420"/>
			<point x="306" y="356" type="curve" smooth="yes"/>
			<point x="306" y="280"/>
			<point x="268" y="240"/>
			<point x="160" y="188" type="curve"/>
		</contour>
	</outline>
	<anchor name="aboveLC" x="190" y="502"/>
	<anchor name="belowLC" x="170" y="-22"/>
</glyph>
<glyph name="hyphen.a" format="1">
	<advance width="600"/>
	<outline>
		<contour>
			<point x="142" y="230" type="line"/>
			<point x="458" y="230" type="line"/>
			<point x="458" y="270" type="line"/>
			<point x="142" y="270" type="line"/>
		</contour>
	</outline>
</glyph>
<glyph name="hyphen.sups" format="2">
	<advance width="600"/>
	<outline>
		<contour>
			<point x="226" y="562" type="line"/>
			<point x="374" y="562" type="line"/>
			<point x="374" y="588" type="line"/>
			<point x="226" y="588" type="line"/>
		</contour>
	</outline>
</glyph>
<glyph name="i.a" format="1">
	<advance width="600"/>
	<outline>
		<component base="dotlessi.a"/>
		<component base="dotaccentcmb" xOffset="30"/>
		<contour>
			<point name="aboveUC" x="330" y="720" type="move"/>
		</contour>
		<contour>
			<point name="ogonekLC" x="340" y="0" type="move"/>
		</contour>
		<contour>
			<point name="baseLC" x="334" y="0" type="move"/>
		</contour>
		<contour>
			<point name="belowLC" x="330" y="-20" type="move"/>
		</contour>
	</outline>
</glyph>
<glyph name="j.sups" format="1">
	<advance width="600"/>
	<outline>
		<contour>
			<point x="228" y="259" type="curve" smooth="yes"/>
			<point x="324" y="259"/>
			<point x="354" y="309"/>
			<point x="354" y="387" type="curve" smooth="yes"/>
			<point x="354" y="726" type="line"/>
			<point x="168" y="726" type="line"/>
			<point x="168" y="699" type="line"/>
			<point x="323" y="699" type="line"/>
			<point x="323" y="383" type="line" smooth="yes"/>
			<point x="323" y="325"/>
			<point x="303" y="287"/>
			<point x="229" y="287" type="curve" smooth="yes"/>
			<point x="205" y="287"/>
			<point x="178" y="295"/>
			<point x="158" y="306" type="curve"/>
			<point x="146" y="281" type="line"/>
			<point x="168" y="269"/>
			<point x="199" y="259"/>
		</contour>
		<contour>
			<point x="332" y="803" type="curve" smooth="yes"/>
			<point x="350" y="803"/>
			<point x="364" y="815"/>
			<point x="364" y="835" type="curve" smooth="yes"/>
			<point x="364" y="855"/>
			<point x="350" y="868"/>
			<point x="332" y="868" type="curve" smooth="yes"/>
			<point x="313" y="868"/>
			<point x="299" y="855"/>
			<point x="299" y="835" type="curve" smooth="yes"/>
			<point x="299" y="815"/>
			<point x="313" y="803"/>
		</contour>
	</outline>
</glyph>
<glyph name="k.sups" format="1">
	<advance width="600"/>
	<outline>
		<contour>
			<point x="212" y="410" type="line"/>
			<point x="244" y="410" type="line"/>
			<point x="244" y="498" type="line"/>
			<point x="334" y="583" type="line"/>
			<point x="463" y="410" type="line"/>
			<point x="500" y="410" type="line"/>
			<point x="355" y="604" type="line"/>
			<point x="480" y="726" type="line"/>
			<point x="442" y="726" type="line"/>
			<point x="245" y="538" type="line"/>
			<point x="244" y="538" type="line"/>
			<point x="244" y="884" type="line"/>
			<point x="212" y="884" type="line"/>
		</contour>
	</outline>
</glyph>
<glyph name="kahook" format="2">
	<advance width="600"/>
	<outline>
		<contour>
			<point x="290" y="-234" type="curve" smooth="yes"/>
			<point x="446" y="-234"/>
			<point x="538" y="-138"/>
			<point x="538" y="16" type="curve" smooth="yes"/>
			<point x="538" y="175"/>
			<point x="442" y="262"/>
			<point x="306" y="262" type="curve"/>
			<point x="360" y="252" type="line"/>
			<point x="432" y="374" type="line" smooth="yes"/>
			<point x="472" y="442"/>
			<point x="482" y="454"/>
			<point x="508" y="454" type="curve" smooth="yes"/>
			<point x="514" y="454"/>
			<point x="516" y="454"/>
			<point x="522" y="452" type="curve"/>
			<point x="530" y="482" type="line"/>
			<point x="526" y="484"/>
			<point x="518" y="486"/>
			<point x="510" y="486" type="curve" smooth="yes"/>
			<point x="472" y="486"/>
			<point x="452" y="464"/>
			<point x="404" y="382" type="curve" smooth="yes"/>
			<point x="334" y="264" type="line"/>
			<point x="166" y="264" type="line"/>
			<point x="166" y="478" type="line"/>
			<point x="136" y="478" type="line"/>
			<point x="136" y="0" type="line"/>
			<point x="166" y="0" type="line"/>
			<point x="166" y="236" type="line"/>
			<point x="304" y="236" type="line" smooth="yes"/>
			<point x="424" y="236"/>
			<point x="506" y="157"/>
			<point x="506" y="16" type="curve" smooth="yes"/>
			<point x="506" y="-116"/>
			<point x="428" y="-206"/>
			<point x="292" y="-206" type="curve" smooth="yes"/>
			<point x="276" y="-206"/>
			<point x="266" y="-204"/>
			<point x="250" y="-198" type="curve"/>
			<point x="242" y="-222" type="line"/>
			<point x="254" y="-230"/>
			<point x="274" y="-234"/>
		</contour>
	</outline>
</glyph>
<glyph name="l.a" format="1">
	<advance width="600"/>
	<outline>
		<contour>
			<point x="326" y="0" type="line"/>
			<point x="356" y="0" type="line"/>
			<point x="356" y="722" type="line"/>
			<point x="140" y="722" type="line"/>
			<point x="140" y="694" type="line"/>
			<point x="326" y="694" type="line"/>
		</contour>
		<contour>
			<point x="114" y="0" type="line"/>
			<point x="564" y="0" type="line"/>
			<point x="564" y="28" type="line"/>
			<point x="114" y="28" type="line"/>
		</contour>
		<contour>
			<point name="aboveUC" x="340" y="740" type="move"/>
		</contour>
		<contour>
			<point name="center" x="342" y="400" type="move"/>
		</contour>
		<contour>
			<point name="baseLC" x="334" y="0" type="move"/>
		</contour>
		<contour>
			<point name="belowLC" x="330" y="-20" type="move"/>
		</contour>
	</outline>
</glyph>
<glyph name="macronacutecmb.cap" format="1">
	<advance width="600"/>
	<outline>
		<contour>
			<point x="180" y="746" type="line"/>
			<point x="420" y="746" type="line"/>
			<point x="420" y="774" type="line"/>
			<point x="180" y="774" type="line"/>
		</contour>
		<contour>
			<point x="292" y="822" type="line"/>
			<point x="392" y="916" type="line"/>
			<point x="370" y="936" type="line"/>
			<point x="276" y="836" type="line"/>
		</contour>
		<contour>
			<point name="_aboveUC" x="300" y="680" type="move"/>
		</contour>
	</outline>
</glyph>
<glyph name="macroncmb.cap" format="2">
	<advance width="600"/>
	<outline>
		<contour>
			<point x="180" y="746" type="line"/>
			<point x="420" y="746" type="line"/>
			<point x="420" y="774" type="line"/>
			<point x="180" y="774" type="line"/>
		</contour>
	</outline>
	<anchor name="_aboveUC" x="300" y="680"/>
</glyph>
<glyph name="nine.cap" format="2">
	<advance width="600"/>
	<outline>
		<contour>
			<point x="250" y="-12" type="curve" smooth="yes"/>
			<point x="387" y="-12"/>
			<point x="512" y="83"/>
			<point x="512" y="362" type="curve" smooth="yes"/>
			<point x="512" y="559"/>
			<point x="424" y="672"/>
			<point x="278" y="672" type="curve" smooth="yes"/>
			<point x="171" y="672"/>
			<point x="78" y="586"/>
			<point x="78" y="468" type="curve" smooth="yes"/>
			<point x="78" y="337"/>
			<point x="154" y="266"/>
			<point x="278" y="266" type="curve" smooth="yes"/>
			<point x="358" y="266"/>
			<point x="426" y="304"/>
			<point x="484" y="362" type="curve"/>
			<point x="484" y="402" type="line"/>
			<point x="416" y="324"/>
			<point x="340" y="294"/>
			<point x="280" y="294" type="curve" smooth="yes"/>
			<point x="166" y="294"/>
			<point x="110" y="360"/>
			<point x="110" y="468" type="curve" smooth="yes"/>
			<point x="110" y="565"/>
			<point x="180" y="644"/>
			<point x="276" y="644" type="curve" smooth="yes"/>
			<point x="419" y="644"/>
			<point x="480" y="523"/>
			<point x="480" y="362" type="curve" smooth="yes"/>
			<point x="480" y="105"/>
			<point x="373" y="16"/>
			<point x="252" y="16" type="curve" smooth="yes"/>
			<point x="198" y="16"/>
			<point x="150" y="34"/>
			<point x="112" y="70" type="curve"/>
			<point x="92" y="48" type="line"/>
			<point x="133" y="12"/>
			<point x="182" y="-12"/>
		</contour>
	</outline>
</glyph>
<glyph name="o.sups" format="1">
	<advance width="600"/>
	<outline>
		<contour>
			<point x="300" y="402" type="curve" smooth="yes"/>
			<point x="382" y="402"/>
			<point x="450" y="463"/>
			<point x="450" y="568" type="curve" smooth="yes"/>
			<point x="450" y="674"/>
			<point x="382" y="734"/>
			<point x="300" y="734" type="curve" smooth="yes"/>
			<point x="219" y="734"/>
			<point x="150" y="674"/>
			<point x="150" y="568" type="curve" smooth="yes"/>
			<point x="150" y="463"/>
			<point x="219" y="402"/>
		</contour>
		<contour>
			<point x="300" y="430" type="curve" smooth="yes"/>
			<point x="232" y="430"/>
			<point x="183" y="486"/>
			<point x="183" y="568" type="curve" smooth="yes"/>
			<point x="183" y="650"/>
			<point x="232" y="707"/>
			<point x="300" y="707" type="curve" smooth="yes"/>
			<point x="368" y="707"/>
			<point x="417" y="650"/>
			<point x="417" y="568" type="curve" smooth="yes"/>
			<point x="417" y="486"/>
			<point x="368" y="430"/>
		</contour>
	</outline>
</glyph>
<glyph name="omegalatinclosed" format="2">
	<advance width="670"/>
	<outline>
		<contour>
			<point x="210" y="-12" type="curve" smooth="yes"/>
			<point x="263" y="-12"/>
			<point x="312" y="16"/>
			<point x="334" y="72" type="curve"/>
			<point x="338" y="72" type="line"/>
			<point x="360" y="16"/>
			<point x="408" y="-12"/>
			<point x="460" y="-12" type="curve" smooth="yes"/>
			<point x="545" y="-12"/>
			<point x="610" y="55"/>
			<point x="610" y="212" type="curve" smooth="yes"/>
			<point x="610" y="354"/>
			<point x="512" y="490"/>
			<point x="336" y="490" type="curve" smooth="yes"/>
			<point x="162" y="490"/>
			<point x="60" y="350"/>
			<point x="60" y="210" type="curve" smooth="yes"/>
			<point x="60" y="58"/>
			<point x="131" y="-12"/>
		</contour>
		<contour>
			<point x="212" y="16" type="curve" smooth="yes"/>
			<point x="147" y="16"/>
			<point x="90" y="80"/>
			<point x="90" y="206" type="curve" smooth="yes"/>
			<point x="90" y="344"/>
			<point x="186" y="462"/>
			<point x="336" y="462" type="curve" smooth="yes"/>
			<point x="488" y="462"/>
			<point x="578" y="346"/>
			<point x="578" y="212" type="curve" smooth="yes"/>
			<point x="578" y="75"/>
			<point x="527" y="16"/>
			<point x="458" y="16" type="curve" smooth="yes"/>
			<point x="407" y="16"/>
			<point x="350" y="48"/>
			<point x="350" y="160" type="curve" smooth="yes"/>
			<point x="350" y="266" type="line"/>
			<point x="320" y="266" type="line"/>
			<point x="320" y="160" type="line" smooth="yes"/>
			<point x="320" y="48"/>
			<point x="264" y="16"/>
		</contour>
	</outline>
	<anchor name="aboveLC" x="330" y="502"/>
	<anchor name="belowLC" x="330" y="-22"/>
</glyph>
<glyph name="one.ac" format="1">
	<advance width="600"/>
	<outline>
		<contour>
			<point x="112" y="0" type="line"/>
			<point x="520" y="0" type="line"/>
			<point x="520" y="28" type="line"/>
			<point x="336" y="28" type="line"/>
			<point x="336" y="660" type="line"/>
			<point x="313" y="660" type="line"/>
			<point x="166" y="536" type="line"/>
			<point x="184" y="516" type="line"/>
			<point x="324" y="626" type="line"/>
			<point x="306" y="630" type="line"/>
			<point x="306" y="28" type="line"/>
			<point x="112" y="28" type="line"/>
		</contour>
	</outline>
</glyph>
<glyph name="one.onum" format="1">
	<advance width="600"/>
	<outline>
		<contour>
			<point x="112" y="0" type="line"/>
			<point x="520" y="0" type="line"/>
			<point x="520" y="28" type="line"/>
			<point x="336" y="28" type="line"/>
			<point x="336" y="570" type="line"/>
			<point x="313" y="570" type="line"/>
			<point x="278" y="554"/>
			<point x="228" y="540"/>
			<point x="162" y="532" type="curve"/>
			<point x="162" y="510" type="line"/>
			<point x="306" y="510" type="line"/>
			<point x="306" y="28" type="line"/>
			<point x="112" y="28" type="line"/>
		</contour>
	</outline>
</glyph>
<glyph name="one.subs" format="1">
	<advance width="600"/>
	<outline>
		<contour>
			<point x="308" y="-170" type="line"/>
			<point x="336" y="-170" type="line"/>
			<point x="336" y="220" type="line"/>
			<point x="310" y="220" type="line"/>
			<point x="284" y="200"/>
			<point x="252" y="188"/>
			<point x="206" y="182" type="curve"/>
			<point x="206" y="160" type="line"/>
			<point x="308" y="160" type="line"/>
		</contour>
		<contour>
			<point x="182" y="-170" type="line"/>
			<point x="456" y="-170" type="line"/>
			<point x="456" y="-144" type="line"/>
			<point x="182" y="-144" type="line"/>
		</contour>
	</outline>
</glyph>
<glyph name="period.subs" format="1">
	<advance width="600"/>
	<outline>
		<contour>
			<point x="300" y="-182" type="curve" smooth="yes"/>
			<point x="320" y="-182"/>
			<point x="336" y="-169"/>
			<point x="336" y="-144" type="curve" smooth="yes"/>
			<point x="336" y="-119"/>
			<point x="320" y="-106"/>
			<point x="300" y="-106" type="curve" smooth="yes"/>
			<point x="280" y="-106"/>
			<point x="264" y="-119"/>
			<point x="264" y="-144" type="curve" smooth="yes"/>
			<point x="264" y="-169"/>
			<point x="280" y="-182"/>
		</contour>
	</outline>
</glyph>
<glyph name="quoteleftheavy" format="2">
	<advance width="600"/>
	<outline>
		<contour>
			<point x="310" y="204" type="curve" smooth="yes"/>
			<point x="400" y="204"/>
			<point x="462" y="272"/>
			<point x="462" y="370" type="curve" smooth="yes"/>
			<point x="462" y="460"/>
			<point x="396" y="516"/>
			<point x="312" y="516" type="curve" smooth="yes"/>
			<point x="248" y="516"/>
			<point x="196" y="484"/>
			<point x="170" y="442" type="curve"/>
			<point x="201" y="366" type="line"/>
			<point x="180" y="444" type="line"/>
			<point x="180" y="558"/>
			<point x="246" y="638"/>
			<point x="360" y="682" type="curve"/>
			<point x="350" y="706" type="line"/>
			<point x="208" y="656"/>
			<point x="138" y="546"/>
			<point x="138" y="404" type="curve" smooth="yes"/>
			<point x="138" y="282"/>
			<point x="202" y="204"/>
		</contour>
	</outline>
</glyph>
<glyph name="quoterightheavy" format="2">
	<advance width="600"/>
	<outline>
		<contour>
			<point x="250" y="204" type="line"/>
			<point x="392" y="254"/>
			<point x="462" y="364"/>
			<point x="462" y="506" type="curve" smooth="yes"/>
			<point x="462" y="628"/>
			<point x="398" y="706"/>
			<point x="290" y="706" type="curve" smooth="yes"/>
			<point x="200" y="706"/>
			<point x="138" y="638"/>
			<point x="138" y="540" type="curve" smooth="yes"/>
			<point x="138" y="450"/>
			<point x="204" y="394"/>
			<point x="288" y="394" type="curve" smooth="yes"/>
			<point x="352" y="394"/>
			<point x="404" y="426"/>
			<point x="430" y="468" type="curve"/>
			<point x="399" y="544" type="line"/>
			<point x="420" y="466" type="line"/>
			<point x="420" y="352"/>
			<point x="354" y="272"/>
			<point x="240" y="228" type="curve"/>
		</contour>
	</outline>
</glyph>
<glyph name="tildecmb.cap" format="1">
	<advance width="600"/>
	<outline>
		<contour>
			<point x="378" y="722" type="curve" smooth="yes"/>
			<point x="430" y="722"/>
			<point x="458" y="771"/>
			<point x="460" y="828" type="curve"/>
			<point x="436" y="830" type="line"/>
			<point x="430" y="782"/>
			<point x="409" y="750"/>
			<point x="378" y="750" type="curve" smooth="yes"/>
			<point x="320" y="750"/>
			<point x="300" y="832"/>
			<point x="222" y="832" type="curve" smooth="yes"/>
			<point x="170" y="832"/>
			<point x="142" y="783"/>
			<point x="140" y="726" type="curve"/>
			<point x="164" y="724" type="line"/>
			<point x="168" y="772"/>
			<point x="191" y="804"/>
			<point x="222" y="804" type="curve" smooth="yes"/>
			<point x="280" y="804"/>
			<point x="300" y="722"/>
		</contour>
		<contour>
			<point name="_aboveUC" x="300" y="680" type="move"/>
		</contour>
	</outline>
</glyph>
<glyph name="ve.c" format="2">
	<advance width="600"/>
	<outline>
		<contour>
			<point x="282" y="-12" type="curve" smooth="yes"/>
			<point x="408" y="-12"/>
			<point x="482" y="72"/>
			<point x="482" y="190" type="curve" smooth="yes"/>
			<point x="482" y="319"/>
			<point x="394" y="374"/>
			<point x="316" y="390" type="curve"/>
			<point x="316" y="394" type="line"/>
			<point x="376" y="424"/>
			<point x="430" y="488"/>
			<point x="430" y="582" type="curve" smooth="yes"/>
			<point x="430" y="684"/>
			<point x="362" y="734"/>
			<point x="278" y="734" type="curve" smooth="yes"/>
			<point x="162" y="734"/>
			<point x="88" y="644"/>
			<point x="88" y="482" type="curve" smooth="yes"/>
			<point x="88" y="202" type="line" smooth="yes"/>
			<point x="88" y="44"/>
			<point x="178" y="-12"/>
		</contour>
		<contour>
			<point x="282" y="20" type="curve" smooth="yes"/>
			<point x="194" y="20"/>
			<point x="118" y="69"/>
			<point x="118" y="214" type="curve" smooth="yes"/>
			<point x="118" y="468" type="line" smooth="yes"/>
			<point x="118" y="628"/>
			<point x="182" y="706"/>
			<point x="280" y="706" type="curve" smooth="yes"/>
			<point x="344" y="706"/>
			<point x="398" y="664"/>
			<point x="398" y="582" type="curve" smooth="yes"/>
			<point x="398" y="498"/>
			<point x="340" y="400"/>
			<point x="220" y="400" type="curve" smooth="yes"/>
			<point x="96" y="400" type="line"/>
			<point x="96" y="372" type="line"/>
			<point x="234" y="372" type="line" smooth="yes"/>
			<point x="368" y="372"/>
			<point x="450" y="304"/>
			<point x="450" y="190" type="curve" smooth="yes"/>
			<point x="450" y="86"/>
			<point x="378" y="20"/>
		</contour>
	</outline>
</glyph>
<glyph name="zero.0" format="1">
	<advance width="600"/>
	<outline>
		<contour>
			<point x="300" y="-12" type="curve" smooth="yes"/>
			<point x="438" y="-12"/>
			<point x="516" y="112"/>
			<point x="516" y="322" type="curve" smooth="yes"/>
			<point x="516" y="534"/>
			<point x="438" y="652"/>
			<point x="300" y="652" type="curve" smooth="yes"/>
			<point x="162" y="652"/>
			<point x="84" y="534"/>
			<point x="84" y="322" type="curve" smooth="yes"/>
			<point x="84" y="112"/>
			<point x="162" y="-12"/>
		</contour>
		<contour>
			<point x="300" y="16" type="curve" smooth="yes"/>
			<point x="190" y="16"/>
			<point x="116" y="124"/>
			<point x="116" y="322" type="curve" smooth="yes"/>
			<point x="116" y="520"/>
			<point x="190" y="624"/>
			<point x="300" y="624" type="curve" smooth="yes"/>
			<point x="410" y="624"/>
			<point x="484" y="520"/>
			<point x="484" y="322" type="curve" smooth="yes"/>
			<point x="484" y="124"/>
			<point x="410" y="16"/>
		</contour>
		<contour>
			<point x="440" y="98" type="line"/>
			<point x="470" y="104" type="line"/>
			<point x="160" y="546" type="line"/>
			<point x="130" y="540" type="line"/>
		</contour>
	</outline>
</glyph>
<glyph name="zhe.d" format="2">
	<advance width="600"/>
	<outline>
		<contour>
			<point x="10" y="0" type="line"/>
			<point x="44" y="0" type="line"/>
			<point x="180" y="236" type="line"/>
			<point x="286" y="236" type="line"/>
			<point x="286" y="0" type="line"/>
			<point x="314" y="0" type="line"/>
			<point x="314" y="236" type="line"/>
			<point x="420" y="236" type="line"/>
			<point x="556" y="0" type="line"/>
			<point x="590" y="0" type="line"/>
			<point x="443" y="252" type="line"/>
			<point x="568" y="478" type="line"/>
			<point x="534" y="478" type="line"/>
			<point x="416" y="264" type="line"/>
			<point x="314" y="264" type="line"/>
			<point x="314" y="722" type="line"/>
			<point x="286" y="722" type="line"/>
			<point x="286" y="264" type="line"/>
			<point x="184" y="264" type="line"/>
			<point x="66" y="478" type="line"/>
			<point x="32" y="478" type="line"/>
			<point x="157" y="252" type="line"/>
		</contour>
	</outline>
</glyph>
